<svg width="192" height="192" viewBox="0 0 192 192" xmlns="http://www.w3.org/2000/svg">
  <defs>
    <style>
      @keyframes rotate {
        from { transform: rotate(0deg); }
        to { transform: rotate(360deg); }
      }
      
      @keyframes pulse {
        0% { opacity: 0.6; transform: scale(1); }
        50% { opacity: 1; transform: scale(1.05); }
        100% { opacity: 0.6; transform: scale(1); }
      }
      
      .outer-dial {
        animation: rotate 45s linear infinite;
        transform-origin: center;
      }
      
      .middle-dial {
        animation: rotate 35s linear infinite reverse;
        transform-origin: center;
      }
      
      .inner-dial {
        animation: pulse 15s ease-in-out infinite;
      }
      
      .om-symbol {
        animation: pulse 20s ease-in-out infinite;
      }
    </style>
  </defs>

  <!-- Background -->
  <rect width="192" height="192" fill="#fef3c7"/>
  
  <!-- Animated Outer Dial Circles -->
  <g class="outer-dial">
    <circle cx="96" cy="96" r="90" fill="none" stroke="#dc2626" stroke-width="8" opacity="0.3" stroke-dasharray="12,12"/>
    <circle cx="96" cy="96" r="75" fill="none" stroke="#dc2626" stroke-width="6" opacity="0.4" stroke-dasharray="10,10"/>
  </g>

  <g class="middle-dial">
    <circle cx="96" cy="96" r="60" fill="none" stroke="#dc2626" stroke-width="4" opacity="0.5" stroke-dasharray="8,8"/>
    <circle cx="96" cy="96" r="45" fill="none" stroke="#dc2626" stroke-width="3" opacity="0.6" stroke-dasharray="6,6"/>
  </g>

  <g class="inner-dial">
    <circle cx="96" cy="96" r="30" fill="none" stroke="#dc2626" stroke-width="6" opacity="0.4" stroke-dasharray="15,15"/>
  </g>

  <!-- Main Om Symbol -->
  <g class="om-symbol" transform="translate(96, 96)">
    <!-- Sacred Om Symbol -->
    <g>
      <!-- Main Om curve -->
      <path d="M-6 -6 Q-3 -9 0 -6 Q3 -3 6 -6 Q9 -9 12 -6 Q15 -3 18 -6" 
            stroke="#dc2626" 
            stroke-width="1.5" 
            fill="none" 
            stroke-linecap="round"/>
      
      <!-- Om dot -->
      <circle cx="0" cy="-3" r="1" fill="#dc2626"/>
      
      <!-- Om crescent -->
      <path d="M-1.5 -1.5 Q0 -4.5 1.5 -1.5" 
            stroke="#dc2626" 
            stroke-width="1.5" 
            fill="none" 
            stroke-linecap="round"/>
      
      <!-- Sacred dots -->
      <circle cx="-4.5" cy="1.5" r="0.6" fill="#dc2626"/>
      <circle cx="4.5" cy="1.5" r="0.6" fill="#dc2626"/>
      <circle cx="0" cy="4.5" r="0.6" fill="#dc2626"/>
      
      <!-- Divine rays -->
      <line x1="-9" y1="-9" x2="-6" y2="-6" stroke="#dc2626" stroke-width="0.8" opacity="0.6"/>
      <line x1="6" y1="-6" x2="9" y2="-9" stroke="#dc2626" stroke-width="0.8" opacity="0.6"/>
      <line x1="-9" y1="9" x2="-6" y2="6" stroke="#dc2626" stroke-width="0.8" opacity="0.6"/>
      <line x1="6" y1="6" x2="9" y2="9" stroke="#dc2626" stroke-width="0.8" opacity="0.6"/>
    </g>
  </g>

  <!-- Sacred Dots Around Outer Dial -->
  <g class="outer-dial">
    <circle cx="96" cy="6" r="2" fill="#dc2626" opacity="0.9"/>
    <circle cx="96" cy="186" r="2" fill="#dc2626" opacity="0.9"/>
    <circle cx="6" cy="96" r="2" fill="#dc2626" opacity="0.9"/>
    <circle cx="186" cy="96" r="2" fill="#dc2626" opacity="0.9"/>
  </g>
</svg> 