<?xml version="1.0" standalone="no"?>
<!DOCTYPE svg PUBLIC "-//W3C//DTD SVG 20010904//EN"
 "http://www.w3.org/TR/2001/REC-SVG-20010904/DTD/svg10.dtd">
<svg version="1.0" xmlns="http://www.w3.org/2000/svg"
 width="2000.000000pt" height="2000.000000pt" viewBox="0 0 2000.000000 2000.000000"
 preserveAspectRatio="xMidYMid meet">

<style>
  @keyframes rotate {
    from { transform: rotate(0deg); }
    to { transform: rotate(360deg); }
  }
  
  @keyframes pulse {
    0% { opacity: 0.6; transform: scale(1); }
    50% { opacity: 1; transform: scale(1.05); }
    100% { opacity: 0.6; transform: scale(1); }
  }
  
  @keyframes glow {
    0% { filter: drop-shadow(0 0 15px #dc2626); }
    50% { filter: drop-shadow(0 0 25px #dc2626); }
    100% { filter: drop-shadow(0 0 15px #dc2626); }
  }
  
  .outer-dial {
    animation: rotate 45s linear infinite;
    transform-origin: center;
  }
  
  .middle-dial {
    animation: rotate 35s linear infinite reverse;
    transform-origin: center;
  }
  
  .inner-dial {
    animation: pulse 15s ease-in-out infinite;
  }
  
  .om-symbol {
    animation: glow 20s ease-in-out infinite;
  }
</style>

<!-- Animated Outer Dial Circles -->
<g class="outer-dial">
  <circle cx="1000" cy="1000" r="950" fill="none" stroke="#dc2626" stroke-width="12" opacity="0.3" stroke-dasharray="15,15"/>
  <circle cx="1000" cy="1000" r="900" fill="none" stroke="#dc2626" stroke-width="8" opacity="0.4" stroke-dasharray="12,12"/>
</g>

<g class="middle-dial">
  <circle cx="1000" cy="1000" r="850" fill="none" stroke="#dc2626" stroke-width="6" opacity="0.5" stroke-dasharray="10,10"/>
  <circle cx="1000" cy="1000" r="800" fill="none" stroke="#dc2626" stroke-width="4" opacity="0.6" stroke-dasharray="8,8"/>
</g>

<g class="inner-dial">
  <circle cx="1000" cy="1000" r="750" fill="none" stroke="#dc2626" stroke-width="10" opacity="0.4" stroke-dasharray="20,20"/>
</g>

<!-- Sacred Dots Around Outer Dial -->
<g class="outer-dial">
  <circle cx="1000" cy="50" r="3" fill="#dc2626" opacity="0.9"/>
  <circle cx="1000" cy="1950" r="3" fill="#dc2626" opacity="0.9"/>
  <circle cx="50" cy="1000" r="3" fill="#dc2626" opacity="0.9"/>
  <circle cx="1950" cy="1000" r="3" fill="#dc2626" opacity="0.9"/>
  
  <circle cx="1414" cy="586" r="2" fill="#dc2626" opacity="0.8"/>
  <circle cx="586" cy="1414" r="2" fill="#dc2626" opacity="0.8"/>
  <circle cx="1414" cy="1414" r="2" fill="#dc2626" opacity="0.8"/>
  <circle cx="586" cy="586" r="2" fill="#dc2626" opacity="0.8"/>
</g>

<g class="om-symbol" transform="translate(0.000000,2000.000000) scale(0.100000,-0.100000)"
fill="#dc2626" stroke="none">
<path d="M9424 18622 c-17 -20 -31 -41 -32 -45 -1 -4 -15 -19 -32 -33 -16 -14
-28 -30 -24 -35 3 -5 1 -9 -4 -9 -13 0 -165 -181 -165 -196 0 -7 -4 -11 -8 -9
-9 6 -115 -124 -111 -137 1 -5 -2 -7 -7 -4 -5 4 -19 -7 -31 -24 -12 -16 -27
-30 -34 -30 -6 0 -40 20 -73 45 -40 29 -63 40 -67 32 -3 -7 -5 -6 -5 4 -1 15
-91 87 -91 72 0 -4 -7 3 -16 15 -8 12 -19 20 -24 17 -4 -3 -10 2 -14 10 -3 8
-10 15 -16 15 -6 0 -8 -5 -4 -12 4 -7 3 -8 -5 -4 -6 4 -9 11 -6 16 8 12 -123
102 -137 94 -6 -4 -8 -3 -4 4 8 13 -33 43 -48 35 -6 -3 -8 -2 -3 2 9 10 -82
77 -94 69 -5 -3 -9 -12 -9 -20 0 -8 -4 -14 -10 -14 -5 0 -10 -6 -10 -14 0 -8
-4 -16 -8 -18 -5 -1 -30 -36 -56 -76 -40 -63 -45 -76 -34 -90 11 -15 11 -15
-3 -4 -14 11 -20 8 -38 -23 -11 -20 -21 -40 -21 -46 0 -5 -4 -9 -8 -9 -5 0
-15 -12 -23 -27 -8 -16 -22 -37 -32 -48 -10 -11 -20 -30 -23 -42 -4 -13 -9
-23 -13 -23 -3 0 -28 -36 -56 -79 -27 -44 -57 -83 -65 -86 -8 -3 -11 -3 -7 1
4 4 -5 15 -21 24 -60 36 -222 119 -222 113 0 -3 -9 2 -19 11 -11 10 -25 15
-32 10 -8 -4 -10 -3 -5 4 8 13 -89 66 -105 57 -5 -4 -8 -2 -7 4 2 6 -47 38
-109 71 l-112 60 -57 -112 c-36 -71 -50 -107 -38 -98 16 12 15 10 -2 -10 -21
-25 -134 -243 -134 -257 0 -5 5 -1 10 7 6 9 10 10 10 3 0 -7 -6 -16 -14 -20
-7 -4 -32 -45 -55 -90 -23 -46 -45 -83 -50 -83 -5 0 -46 14 -90 31 -44 17 -86
27 -92 23 -7 -4 -9 -3 -6 3 6 9 -75 45 -123 55 -8 2 -17 5 -20 8 -12 13 -123
49 -132 43 -6 -3 -8 -2 -5 4 3 5 -20 18 -51 28 -31 10 -62 22 -68 27 -6 5 -20
5 -29 1 -12 -4 -16 -3 -12 4 5 8 -39 33 -57 33 -1 0 -53 -158 -116 -350 l-115
-351 -35 8 c-19 4 -47 7 -62 7 -14 1 -25 3 -23 6 3 5 -231 66 -320 85 -11 2
-52 12 -92 23 -53 14 -75 16 -84 8 -9 -8 -10 -8 -5 1 4 8 -7 16 -31 22 -71 20
-73 19 -87 -59 -3 -14 -18 -90 -34 -170 -17 -80 -33 -161 -36 -180 -3 -19 -8
-46 -11 -60 -3 -14 -15 -73 -26 -132 -22 -112 -30 -123 -74 -107 -11 4 -68 13
-128 19 -85 10 -111 9 -122 0 -13 -11 -14 -10 -9 4 5 13 -1 16 -37 18 -53 1
-60 2 -218 23 -68 9 -130 14 -136 11 -7 -2 -17 0 -23 6 -12 12 -26 -99 -20
-161 2 -21 1 -38 -2 -36 -5 3 -27 -273 -36 -454 -2 -41 -6 -76 -9 -79 -3 -3
-171 -8 -373 -10 l-367 -5 7 -116 c4 -64 8 -146 8 -183 1 -38 5 -68 8 -68 4 0
8 -83 10 -184 l3 -183 -23 -7 c-13 -3 -35 -6 -50 -6 -15 0 -29 -4 -32 -8 -3
-5 -19 -7 -36 -4 -16 2 -30 0 -30 -4 0 -5 -17 -9 -37 -9 -63 -1 -193 -17 -189
-24 2 -3 -15 -6 -37 -6 -56 -1 -286 -31 -294 -38 -6 -6 31 -185 38 -182 4 3 5
-3 2 -14 -3 -10 3 -56 12 -102 10 -46 19 -97 22 -114 2 -16 7 -37 10 -45 3 -8
5 -23 4 -32 -1 -10 3 -28 10 -40 7 -13 11 -40 10 -60 -1 -21 1 -38 6 -38 4 0
9 -22 10 -50 l3 -49 -52 -16 c-28 -8 -58 -15 -65 -15 -8 0 -11 -5 -7 -12 4 -7
3 -8 -5 -4 -16 10 -193 -36 -178 -47 7 -5 4 -6 -9 -2 -12 3 -63 -6 -115 -21
-52 -14 -112 -30 -134 -36 -22 -5 -47 -12 -55 -15 -8 -3 -22 -7 -30 -8 -35 -4
-60 -17 -60 -31 0 -8 4 -14 10 -14 5 0 7 -7 4 -15 -4 -8 -1 -15 6 -15 6 0 9
-4 6 -8 -6 -11 84 -296 95 -300 4 -2 6 -9 3 -15 -2 -7 20 -85 49 -174 28 -88
49 -159 46 -157 -9 5 -170 -61 -164 -68 4 -3 0 -6 -7 -5 -34 1 -49 -4 -42 -15
4 -6 3 -8 -4 -4 -6 3 -51 -10 -101 -31 -77 -31 -89 -39 -78 -51 10 -13 9 -14
-8 -3 -17 10 -30 8 -80 -13 -33 -14 -59 -29 -58 -35 2 -6 -4 -8 -12 -5 -18 7
-125 -34 -125 -48 0 -14 83 -192 93 -199 5 -3 8 -10 8 -15 -1 -17 10 -44 20
-44 5 0 8 -4 7 -8 -6 -19 158 -368 171 -365 7 2 7 -5 2 -20 -5 -13 -37 -38
-79 -62 -39 -21 -69 -42 -66 -46 2 -4 -1 -11 -7 -15 -8 -4 -9 -3 -5 4 8 14 -6
16 -20 3 -5 -5 -36 -23 -69 -41 -141 -77 -381 -212 -388 -219 -10 -10 101
-187 114 -183 6 1 8 -2 4 -7 -5 -9 38 -89 55 -101 4 -3 10 -15 14 -28 4 -12
12 -19 18 -16 7 4 8 2 4 -4 -4 -6 2 -20 14 -32 11 -11 18 -20 15 -20 -3 0 -1
-9 5 -20 6 -11 15 -18 20 -15 6 4 7 -1 3 -11 -4 -11 -3 -15 5 -10 6 3 14 1 18
-5 4 -8 3 -9 -4 -5 -20 12 -14 0 38 -82 28 -43 50 -84 50 -89 0 -6 -51 -48
-113 -94 -61 -45 -117 -89 -123 -96 -6 -7 -15 -13 -19 -13 -4 0 -16 -9 -26
-21 -9 -11 -20 -20 -24 -19 -3 0 -44 -27 -91 -61 -69 -51 -84 -65 -79 -83 2
-11 2 -15 -1 -8 -3 6 -11 9 -16 6 -7 -5 -8 -2 -3 6 4 7 -6 2 -24 -11 -17 -12
-31 -26 -31 -30 0 -4 -9 -9 -21 -12 -19 -5 -15 -13 42 -81 34 -42 66 -73 72
-69 6 3 7 1 3 -6 -8 -13 58 -96 77 -96 7 -1 11 -7 9 -14 -2 -8 19 -39 45 -70
27 -31 64 -75 82 -99 18 -23 38 -39 43 -36 6 4 8 2 5 -3 -4 -6 11 -33 33 -59
38 -46 39 -49 22 -69 -9 -11 -23 -24 -30 -28 -11 -7 -11 -12 -1 -25 11 -14 11
-15 -1 -4 -12 10 -24 3 -70 -42 -30 -29 -83 -79 -117 -111 -35 -32 -60 -62
-56 -68 3 -5 2 -7 -4 -4 -13 8 -56 -37 -46 -48 5 -4 3 -5 -3 -2 -14 8 -37 -17
-26 -28 4 -5 2 -5 -5 -1 -8 4 -41 -21 -85 -64 l-73 -70 73 -70 c42 -41 77 -68
84 -64 6 4 8 3 5 -3 -8 -13 17 -36 28 -25 5 4 5 2 2 -4 -8 -14 36 -57 48 -47
4 5 5 3 2 -3 -4 -6 21 -37 56 -69 34 -32 87 -82 117 -111 46 -45 58 -52 70
-42 12 11 12 10 1 -4 -10 -13 -10 -18 1 -25 7 -4 21 -17 30 -28 17 -20 16 -23
-22 -69 -22 -26 -37 -53 -33 -59 3 -5 1 -7 -5 -3 -5 3 -25 -13 -43 -36 -18
-24 -55 -68 -82 -99 -26 -31 -47 -62 -45 -70 2 -7 -2 -13 -9 -14 -19 0 -85
-83 -77 -96 4 -7 3 -9 -3 -6 -6 4 -38 -27 -72 -69 -57 -68 -61 -76 -42 -81 12
-3 21 -8 21 -12 0 -4 14 -18 31 -30 18 -13 28 -18 24 -11 -5 8 -4 11 3 6 5 -3
13 0 16 6 3 7 3 3 1 -8 -5 -18 10 -32 79 -83 47 -34 88 -61 91 -61 4 1 15 -8
24 -19 10 -12 22 -21 26 -21 4 0 13 -6 19 -13 6 -7 62 -51 124 -96 61 -46 112
-88 112 -93 0 -6 -29 -57 -65 -114 -36 -57 -66 -109 -67 -115 -2 -7 -11 -21
-21 -31 -10 -10 -15 -24 -11 -30 4 -6 3 -8 -4 -4 -6 3 -14 -4 -18 -16 -4 -13
-10 -25 -14 -28 -17 -12 -60 -92 -55 -101 4 -5 2 -8 -4 -7 -13 4 -124 -173
-114 -183 7 -6 133 -78 383 -217 200 -111 243 -139 251 -160 6 -15 5 -21 -1
-17 -6 4 -20 -14 -31 -40 -17 -39 -18 -49 -7 -63 11 -15 11 -16 -3 -4 -15 11
-21 2 -57 -80 -23 -51 -50 -111 -61 -133 -10 -22 -17 -43 -14 -47 2 -5 0 -8
-6 -8 -9 0 -27 -40 -22 -49 2 -2 -1 -7 -6 -10 -10 -7 -93 -185 -93 -199 0 -14
107 -55 125 -48 8 3 14 1 12 -5 -1 -6 25 -21 58 -35 50 -21 63 -23 80 -13 17
11 18 10 8 -3 -11 -12 1 -20 78 -51 50 -21 95 -34 101 -31 7 4 8 2 4 -4 -7
-11 8 -16 42 -15 7 1 11 -2 7 -5 -6 -7 155 -73 164 -68 3 2 -18 -69 -46 -157
-29 -89 -51 -167 -49 -174 3 -6 1 -13 -3 -15 -11 -4 -101 -289 -95 -300 3 -4
0 -8 -6 -8 -7 0 -10 -7 -6 -15 3 -8 1 -15 -4 -15 -6 0 -10 -6 -10 -14 0 -14
25 -27 60 -31 8 -1 22 -5 30 -8 8 -3 33 -10 55 -15 22 -6 82 -22 134 -36 52
-15 103 -24 115 -21 13 4 16 3 9 -2 -15 -11 162 -57 178 -47 8 4 9 3 5 -4 -4
-7 -1 -12 7 -12 7 0 37 -7 65 -15 l52 -16 -3 -49 c-1 -28 -5 -50 -8 -50 -6 0
-19 -72 -24 -130 -2 -14 -5 -32 -8 -40 -3 -8 -8 -28 -10 -45 -3 -16 -12 -68
-22 -114 -9 -46 -15 -92 -12 -102 3 -11 2 -17 -2 -14 -7 3 -44 -176 -38 -182
8 -7 238 -37 294 -38 22 0 39 -3 37 -6 -4 -7 126 -23 189 -24 20 0 37 -4 37
-9 0 -4 14 -6 30 -4 17 3 33 1 36 -4 3 -4 17 -8 32 -8 15 0 37 -3 50 -6 l23
-7 -3 -183 c-2 -101 -6 -184 -10 -184 -3 0 -7 -30 -8 -67 0 -38 -4 -120 -8
-184 l-7 -116 368 -5 c301 -3 370 -7 377 -18 5 -8 6 -18 4 -22 -3 -4 4 -137
15 -295 28 -392 31 -417 43 -405 6 6 16 8 23 6 6 -3 68 2 136 11 158 21 165
22 218 23 36 2 42 5 37 18 -5 14 -4 15 9 4 11 -9 37 -10 122 0 60 6 117 15
128 19 44 16 52 5 74 -107 11 -59 23 -118 26 -132 3 -14 8 -41 11 -60 3 -19
19 -100 36 -180 16 -80 31 -156 34 -170 14 -78 16 -79 87 -59 24 6 35 14 31
22 -5 9 -4 9 5 1 9 -8 31 -6 84 8 40 11 81 21 92 23 89 19 323 80 320 85 -2 3
9 5 23 6 15 0 43 3 62 7 l35 8 115 -351 c63 -192 115 -350 116 -350 18 0 62
25 57 33 -4 7 0 8 12 4 9 -4 23 -4 29 1 6 5 37 17 68 27 31 10 54 23 51 28 -3
6 -1 7 5 4 9 -6 120 30 132 43 3 3 12 6 20 8 48 10 129 46 123 55 -3 6 -1 7 6
3 6 -4 48 6 92 23 44 17 85 31 90 31 5 0 27 -37 50 -82 23 -46 48 -87 55 -91
8 -4 14 -13 14 -20 0 -7 -4 -6 -10 3 -5 8 -10 12 -10 7 0 -14 113 -232 134
-257 17 -20 18 -22 2 -10 -12 9 2 -27 38 -98 l57 -112 32 17 c93 48 213 117
219 127 4 6 8 8 8 3 0 -4 18 2 40 13 25 13 38 25 34 32 -5 7 -3 8 5 4 7 -5 21
0 32 10 10 9 19 14 19 11 0 -6 162 77 222 113 16 9 25 20 21 24 -4 4 -1 4 7 1
8 -3 38 -42 65 -86 28 -43 53 -79 56 -79 4 0 9 -10 13 -23 3 -12 13 -31 23
-42 10 -11 24 -32 32 -47 8 -16 18 -28 23 -28 4 0 8 -4 8 -9 0 -6 10 -26 21
-46 18 -31 24 -34 38 -23 14 11 14 11 3 -4 -11 -14 -6 -27 34 -90 26 -40 51
-75 56 -76 4 -2 8 -10 8 -18 0 -8 5 -14 10 -14 6 0 10 -6 10 -14 0 -8 4 -17 9
-20 12 -8 103 59 94 69 -5 4 -3 5 3 2 15 -8 56 22 48 35 -4 7 -2 8 4 4 14 -8
145 82 137 94 -3 5 0 12 6 16 8 4 9 3 5 -4 -4 -7 -2 -12 4 -12 6 0 13 7 16 15
4 8 10 13 14 10 5 -3 16 5 24 17 9 12 16 19 16 15 0 -15 90 57 91 72 0 10 2
11 5 4 4 -8 27 3 67 32 33 25 67 45 73 45 7 0 22 -14 34 -30 12 -17 26 -28 31
-24 5 3 8 1 7 -4 -4 -13 102 -143 111 -137 4 2 8 -2 8 -9 0 -15 152 -196 165
-196 5 0 7 -4 4 -9 -4 -5 8 -21 24 -35 17 -14 30 -28 30 -31 0 -3 14 -23 32
-44 l33 -39 45 41 c173 158 228 212 223 221 -4 6 -2 8 2 3 11 -10 66 43 58 56
-3 6 -1 7 6 3 7 -5 50 28 109 83 53 50 99 91 102 91 3 0 49 -41 102 -91 59
-55 102 -88 109 -83 7 4 9 3 6 -3 -8 -13 47 -66 58 -56 4 5 6 3 2 -3 -5 -9 50
-63 223 -221 l45 -41 35 41 c19 23 35 44 35 47 0 3 12 16 27 28 16 13 26 28
22 33 -3 5 -1 9 4 9 13 0 165 181 165 196 0 7 4 11 8 9 9 -6 115 124 111 137
-1 5 2 7 7 4 5 -4 19 7 31 24 12 16 27 30 34 30 6 0 40 -20 73 -45 40 -29 63
-40 67 -32 3 7 5 6 5 -4 1 -15 91 -87 91 -72 0 4 7 -3 16 -15 8 -12 19 -20 24
-17 4 3 10 -2 14 -10 3 -8 10 -15 16 -15 6 0 8 5 4 12 -4 7 -3 8 5 4 6 -4 9
-11 6 -16 -8 -12 123 -102 137 -94 6 4 8 3 4 -4 -8 -13 33 -43 48 -35 6 3 8 2
3 -2 -9 -10 82 -77 94 -69 5 3 9 12 9 20 0 8 5 14 10 14 6 0 10 6 10 14 0 8 4
16 8 18 5 2 30 36 56 76 40 63 45 76 34 90 -11 15 -11 15 3 4 14 -11 20 -8 38
23 11 20 21 40 21 46 0 5 4 9 8 9 5 0 15 12 23 28 8 15 22 36 32 47 10 11 20
30 23 42 4 13 9 23 13 23 3 0 29 36 56 79 28 44 57 83 65 86 8 3 11 3 7 -1 -4
-4 5 -15 21 -24 60 -36 222 -119 222 -113 0 3 9 -2 19 -11 11 -10 25 -15 32
-10 8 4 10 3 5 -4 -8 -13 89 -66 105 -57 5 4 8 2 7 -4 -2 -6 47 -38 109 -71
l112 -60 57 112 c36 71 50 107 38 98 -16 -12 -15 -10 2 10 21 25 134 243 134
257 0 5 -5 1 -10 -7 -6 -9 -10 -10 -10 -3 0 7 6 16 14 20 7 4 32 45 55 91 23
45 45 82 50 82 5 0 46 -14 90 -31 44 -17 86 -27 92 -23 7 4 9 3 6 -3 -6 -9 75
-45 123 -55 8 -2 17 -5 20 -8 12 -13 123 -49 132 -43 6 3 8 2 5 -4 -3 -5 20
-18 51 -28 31 -10 62 -22 68 -27 6 -5 20 -5 29 -1 12 4 16 3 12 -4 -5 -8 39
-33 57 -33 1 0 53 158 116 350 l115 351 35 -8 c19 -4 47 -7 62 -7 14 -1 25 -3
23 -6 -3 -5 231 -66 320 -85 11 -2 52 -12 92 -23 53 -14 75 -16 84 -8 9 8 10
8 5 -1 -4 -8 7 -16 31 -22 71 -20 73 -19 87 59 3 14 18 90 34 170 17 80 33
161 36 180 3 19 8 46 11 60 3 14 15 73 26 132 22 112 30 123 74 107 11 -4 68
-13 128 -19 85 -10 111 -9 122 0 13 11 14 10 9 -4 -5 -13 1 -16 37 -18 53 -1
60 -2 218 -23 68 -9 130 -14 136 -11 7 2 17 0 23 -6 12 -12 26 99 20 161 -2
21 -1 38 2 36 5 -3 27 273 36 454 2 41 6 76 9 79 3 3 171 8 373 10 l367 5 -7
116 c-4 64 -8 146 -8 184 -1 37 -5 67 -8 67 -4 0 -8 83 -10 184 l-3 183 23 7
c13 3 35 6 50 6 15 0 29 4 32 8 3 5 19 7 36 4 16 -2 30 0 30 4 0 5 17 9 37 9
63 1 193 17 189 24 -2 3 15 6 37 6 56 1 286 31 294 38 6 6 -31 185 -38 182 -4
-3 -5 3 -2 14 3 10 -3 56 -12 102 -10 46 -19 98 -22 114 -2 17 -7 37 -10 45
-3 8 -6 26 -8 40 -5 58 -18 130 -24 130 -3 0 -7 22 -8 50 l-3 49 52 16 c28 8
58 15 65 15 8 0 11 5 7 12 -4 7 -3 8 5 4 16 -10 193 36 178 47 -7 5 -4 6 9 2
12 -3 63 6 115 21 52 14 112 30 134 36 22 5 47 12 55 15 8 3 22 7 30 8 35 4
60 17 60 31 0 8 -4 14 -10 14 -5 0 -7 7 -4 15 4 8 1 15 -6 15 -6 0 -9 4 -6 8
6 11 -84 296 -95 300 -4 2 -6 9 -3 15 2 7 -20 85 -49 174 -28 88 -49 159 -46
157 9 -5 170 61 164 68 -4 3 0 6 7 5 34 -1 49 4 42 15 -4 6 -3 8 4 4 6 -3 51
10 101 31 77 31 89 39 78 51 -10 13 -9 14 8 3 17 -10 30 -8 80 13 33 14 59 29
58 35 -2 6 4 8 12 5 18 -7 125 34 125 48 0 14 -83 192 -93 199 -5 3 -8 8 -6
10 5 9 -13 49 -22 49 -6 0 -8 3 -6 8 3 4 -4 25 -14 47 -11 22 -38 82 -61 133
-36 82 -42 91 -57 80 -14 -12 -14 -11 -3 4 11 14 10 24 -7 63 -11 26 -25 44
-31 40 -6 -4 -7 2 -1 17 5 14 36 39 79 63 39 21 69 42 66 46 -2 4 1 11 7 15 8
4 9 3 5 -4 -8 -14 6 -16 19 -3 6 5 37 23 70 41 141 77 381 212 388 219 10 10
-101 187 -114 183 -6 -1 -8 2 -4 7 5 9 -38 89 -55 101 -4 3 -10 15 -14 28 -4
12 -12 19 -18 16 -7 -4 -8 -2 -4 4 4 6 -1 20 -11 30 -10 10 -19 24 -21 31 -1
6 -31 58 -67 115 -36 57 -65 108 -65 114 0 8 304 240 448 341 25 17 31 28 27
44 -2 12 -2 16 1 9 3 -6 11 -9 16 -6 7 5 8 2 3 -6 -4 -7 6 -2 24 11 17 12 31
26 31 30 0 4 9 9 21 12 19 5 15 13 -42 81 -34 42 -66 73 -72 69 -6 -3 -7 -1
-3 6 8 13 -58 96 -77 96 -7 1 -11 7 -9 14 2 8 -19 39 -45 70 -27 31 -64 75
-82 99 -18 23 -38 39 -43 36 -6 -4 -8 -2 -5 3 4 6 -11 33 -33 59 l-40 49 68
69 c37 38 78 79 92 90 67 55 139 130 133 139 -3 5 -2 7 4 4 13 -8 56 37 46 48
-5 4 -3 5 3 2 14 -8 37 17 26 28 -4 5 -2 5 5 1 8 -4 41 21 85 64 l73 70 -73
70 c-42 41 -77 68 -84 64 -6 -4 -8 -3 -5 3 8 13 -17 36 -28 25 -5 -4 -5 -2 -2
4 8 14 -36 57 -48 47 -4 -5 -5 -3 -2 3 6 10 -65 84 -133 140 -14 11 -55 52
-92 90 l-68 69 40 49 c22 26 37 53 33 59 -3 5 -1 7 5 3 5 -3 25 13 43 36 18
24 55 68 82 99 26 31 47 62 45 70 -2 7 2 13 9 14 19 0 85 83 77 96 -4 7 -3 9
3 6 6 -4 38 27 72 69 57 68 61 76 42 81 -12 3 -21 8 -21 12 0 4 -14 18 -31 30
-18 13 -28 18 -24 11 5 -8 4 -11 -3 -6 -5 3 -13 0 -16 -6 -3 -7 -3 -3 -1 8 5
18 -10 32 -79 83 -47 34 -88 61 -91 61 -4 -1 -15 8 -24 19 -10 12 -22 21 -26
21 -4 0 -13 6 -19 13 -6 7 -62 51 -123 96 -62 46 -113 88 -113 93 0 6 29 57
65 114 36 57 66 109 67 115 2 7 11 21 21 31 10 10 15 24 11 30 -4 6 -3 8 4 4
6 -3 14 4 18 16 4 13 10 25 14 28 17 12 60 92 55 101 -4 5 -2 8 4 7 13 -4 124
173 114 183 -7 7 -247 142 -388 219 -33 18 -64 36 -69 41 -14 13 -28 11 -20
-3 4 -7 3 -8 -5 -4 -6 4 -9 11 -7 15 3 4 -27 25 -66 46 -42 24 -74 49 -79 62
-5 15 -5 22 2 20 13 -3 177 346 171 365 -1 4 2 8 7 8 9 0 27 40 22 49 -2 2 1
7 6 10 10 7 93 185 93 199 0 14 -107 55 -125 48 -8 -3 -14 -1 -12 5 1 6 -25
21 -58 35 -50 21 -63 23 -80 13 -17 -11 -18 -10 -8 3 11 12 -1 20 -78 51 -50
21 -95 34 -101 31 -7 -4 -8 -2 -4 4 7 11 -8 16 -42 15 -7 -1 -11 2 -7 5 6 7
-155 73 -164 68 -3 -2 18 69 46 157 29 89 51 167 49 174 -3 6 -1 13 3 15 11 4
101 289 95 300 -3 4 0 8 6 8 7 0 10 7 6 15 -3 8 -1 15 4 15 6 0 10 6 10 14 0
14 -25 27 -60 31 -8 1 -22 5 -30 8 -8 3 -33 10 -55 15 -22 6 -82 22 -134 36
-52 15 -103 24 -115 21 -13 -4 -16 -3 -9 2 15 11 -162 57 -178 47 -8 -4 -9 -3
-5 4 4 7 1 12 -7 12 -7 0 -37 7 -65 15 l-52 16 3 49 c1 28 6 50 10 50 5 0 7
17 6 38 -1 20 3 47 10 60 7 12 11 30 10 40 -1 9 1 24 4 32 3 8 8 29 10 45 3
17 12 68 22 114 9 46 15 92 12 102 -3 11 -2 17 2 14 7 -3 44 176 38 182 -8 7
-238 37 -294 38 -22 0 -39 3 -37 6 4 7 -126 23 -189 24 -20 0 -37 4 -37 9 0 4
-14 6 -30 4 -17 -3 -33 -1 -36 4 -3 4 -17 8 -32 8 -15 0 -37 3 -50 6 l-23 7 3
183 c2 101 6 184 10 184 3 0 7 30 8 68 0 37 4 119 8 183 l7 116 -367 5 c-202
2 -370 7 -373 10 -3 3 -7 38 -9 79 -9 181 -31 457 -36 454 -3 -2 -4 15 -2 36
6 62 -8 173 -20 161 -6 -6 -16 -8 -23 -6 -6 3 -68 -2 -136 -11 -158 -21 -165
-22 -218 -23 -36 -2 -42 -5 -37 -18 5 -14 4 -15 -9 -4 -11 9 -37 10 -122 0
-60 -6 -117 -15 -128 -19 -44 -16 -52 -5 -74 107 -11 59 -23 118 -26 132 -3
14 -8 41 -11 60 -3 19 -19 100 -36 180 -16 80 -31 156 -34 170 -14 78 -16 79
-87 59 -24 -6 -35 -14 -31 -22 5 -9 4 -9 -5 -1 -9 8 -31 6 -84 -8 -40 -11 -81
-21 -92 -23 -89 -19 -323 -80 -320 -85 2 -3 -9 -5 -23 -6 -15 0 -43 -3 -62 -7
l-35 -8 -115 351 c-63 192 -115 350 -116 350 -18 0 -62 -25 -57 -33 4 -7 0 -8
-12 -4 -9 4 -23 4 -29 -1 -6 -5 -37 -17 -68 -27 -31 -10 -54 -23 -51 -28 3 -6
1 -7 -5 -4 -9 6 -120 -30 -132 -43 -3 -3 -12 -6 -20 -8 -48 -10 -129 -46 -123
-55 3 -6 1 -7 -6 -3 -6 4 -48 -6 -92 -23 -44 -17 -85 -31 -90 -31 -5 0 -27 37
-50 83 -23 45 -48 86 -55 90 -8 4 -14 13 -14 20 0 7 4 6 10 -3 5 -8 10 -12 10
-7 0 14 -113 232 -134 257 -17 20 -18 22 -2 10 12 -9 -2 27 -38 98 l-57 112
-112 -60 c-62 -33 -111 -65 -109 -71 1 -6 -2 -8 -7 -4 -16 9 -113 -44 -105
-57 5 -7 3 -8 -5 -4 -7 5 -21 0 -32 -10 -10 -9 -19 -14 -19 -11 0 6 -162 -77
-222 -113 -16 -9 -25 -20 -21 -24 4 -4 1 -4 -7 -1 -8 3 -37 42 -65 86 -27 43
-53 79 -56 79 -4 0 -9 10 -13 23 -3 12 -13 31 -23 42 -10 11 -24 32 -32 48 -8
15 -18 27 -23 27 -4 0 -8 4 -8 9 0 6 -10 26 -21 46 -18 31 -24 34 -38 23 -14
-11 -14 -11 -3 4 11 14 6 27 -34 90 -26 40 -51 75 -56 76 -4 2 -8 10 -8 18 0
8 -4 14 -10 14 -5 0 -10 6 -10 14 0 8 -4 17 -9 20 -12 8 -103 -59 -94 -69 5
-4 3 -5 -3 -2 -15 8 -56 -22 -48 -35 4 -7 2 -8 -4 -4 -14 8 -145 -82 -137 -94
3 -5 0 -12 -6 -16 -8 -4 -9 -3 -5 4 4 7 2 12 -4 12 -6 0 -13 -7 -16 -15 -4 -8
-10 -13 -14 -10 -5 3 -16 -5 -24 -17 -9 -12 -16 -19 -16 -15 0 15 -90 -57 -91
-72 0 -10 -2 -11 -5 -4 -4 8 -27 -3 -67 -32 -33 -25 -67 -45 -73 -45 -7 0 -22
14 -34 30 -12 17 -26 28 -31 24 -5 -3 -8 -1 -7 4 4 13 -102 143 -111 137 -4
-2 -8 2 -8 9 0 15 -152 196 -165 196 -5 0 -7 4 -4 9 4 5 -8 21 -24 35 -17 14
-31 29 -32 33 -1 4 -15 24 -32 45 l-31 36 -45 -41 c-173 -158 -228 -212 -223
-221 4 -6 2 -8 -2 -3 -11 10 -66 -43 -58 -56 4 -6 1 -7 -6 -2 -16 9 -73 -44
-64 -59 3 -6 3 -8 -2 -4 -4 4 -39 -20 -76 -53 l-69 -61 -69 61 c-37 33 -72 57
-76 53 -5 -4 -5 -2 -2 4 9 15 -48 68 -64 59 -7 -5 -10 -4 -6 2 8 13 -47 66
-58 56 -4 -5 -5 -3 -2 3 4 6 -10 26 -31 44 -20 18 -67 62 -104 97 -43 41 -72
62 -80 57 -7 -4 -10 -4 -6 1 4 4 3 14 -3 22 -10 11 -15 11 -28 1 -14 -11 -14
-11 -3 3 10 13 10 18 0 27 -10 8 -21 1 -44 -26z m94 -116 c108 -100 126 -115
135 -109 6 3 7 1 4 -4 -4 -6 16 -32 44 -58 44 -41 52 -45 67 -33 15 12 16 11
3 -4 -12 -17 -9 -23 12 -19 5 1 6 -3 3 -7 -7 -11 140 -147 159 -147 8 0 17 -4
22 -9 4 -5 3 -6 -4 -2 -21 12 -15 -3 12 -32 l25 -27 25 27 c27 29 33 44 13 32
-8 -4 -9 -3 -5 2 5 5 14 9 22 9 19 0 166 136 159 147 -3 4 -2 8 3 7 21 -4 24
2 12 19 -13 15 -12 16 3 4 15 -12 23 -8 67 33 28 26 48 52 44 58 -3 5 -1 7 4
4 6 -4 45 26 88 66 42 39 84 76 92 81 11 6 25 -3 52 -33 21 -23 41 -38 46 -34
4 5 5 2 1 -5 -7 -12 129 -182 146 -182 4 0 8 -5 8 -11 0 -10 216 -271 229
-277 11 -4 146 99 143 109 -1 6 2 8 7 5 6 -4 97 56 204 133 107 76 206 146
219 155 l25 16 54 -82 c62 -96 74 -110 84 -100 5 4 5 1 1 -6 -7 -12 29 -82 43
-82 4 0 8 -6 8 -13 0 -21 95 -157 106 -150 6 3 7 1 3 -5 -9 -14 41 -95 54 -87
6 3 7 -1 4 -9 -3 -9 -1 -16 6 -16 6 0 9 -4 6 -8 -2 -4 3 -18 13 -30 15 -21 20
-22 44 -11 14 6 24 16 20 22 -3 6 -2 7 4 4 14 -9 285 138 276 149 -5 5 -4 6 1
2 5 -5 48 13 95 38 237 127 212 117 231 97 9 -10 17 -22 18 -28 6 -27 14 -45
21 -45 4 0 8 -6 8 -12 0 -19 232 -501 245 -509 5 -3 9 -9 9 -13 -3 -19 0 -26
12 -26 13 0 178 63 199 76 7 5 20 9 27 11 32 4 289 108 285 114 -2 4 2 7 9 6
34 -1 48 4 41 15 -4 7 -3 8 5 4 6 -4 32 0 57 10 26 10 48 13 53 8 5 -5 59
-161 120 -346 85 -256 116 -336 127 -332 8 2 22 7 32 10 9 4 24 8 32 9 69 9
99 18 93 27 -3 7 -1 8 6 4 12 -8 442 94 436 104 -2 3 9 5 23 6 15 0 38 2 51 5
24 4 26 1 48 -106 12 -60 25 -123 28 -140 30 -163 90 -452 95 -457 4 -6 286
23 455 46 17 3 81 10 142 16 62 7 116 13 120 14 7 1 25 -155 24 -209 0 -11 7
-110 15 -220 9 -110 16 -213 15 -230 0 -16 2 -40 5 -53 l4 -22 248 0 c136 1
300 1 365 0 l119 0 -6 -97 c-4 -54 -8 -125 -11 -158 -6 -76 -19 -342 -19 -419
l-1 -60 205 -28 c113 -15 225 -30 250 -33 39 -4 118 -15 215 -29 17 -2 33 -5
36 -5 10 -1 17 -60 8 -63 -4 -2 -10 -21 -13 -43 -2 -22 -12 -78 -21 -124 -9
-46 -18 -96 -20 -110 -2 -14 -8 -48 -14 -76 -6 -27 -12 -63 -15 -80 -2 -16
-12 -69 -21 -117 -10 -49 -15 -94 -12 -102 6 -15 86 -38 101 -28 17 10 37 11
30 1 -3 -5 -11 -6 -17 -3 -8 5 -9 4 -2 -4 6 -6 24 -12 40 -14 17 -2 32 -6 36
-10 3 -4 19 -9 37 -11 18 -2 35 -7 39 -10 11 -12 24 -7 17 6 -4 6 1 5 12 -4
22 -19 140 -53 153 -44 5 3 12 -1 15 -7 5 -10 7 -10 12 0 5 10 8 10 18 -2 12
-16 164 -58 178 -50 4 3 8 0 8 -5 0 -6 7 -11 16 -11 13 0 14 -3 5 -14 -6 -8
-13 -28 -14 -45 -1 -17 -5 -31 -8 -31 -11 0 -61 -179 -53 -191 5 -8 3 -9 -6
-4 -10 6 -12 4 -7 -8 4 -10 1 -17 -5 -17 -6 0 -8 -3 -5 -7 4 -3 3 -11 -2 -17
-5 -6 -32 -87 -61 -181 -29 -93 -54 -173 -56 -176 -2 -4 22 -17 54 -29 31 -12
65 -26 75 -31 10 -5 22 -7 27 -4 6 4 10 2 10 -2 0 -12 61 -34 73 -26 6 3 7 1
4 -4 -7 -11 156 -79 185 -77 10 1 16 -2 13 -6 -2 -4 39 -24 93 -46 53 -21 101
-41 106 -43 5 -2 5 3 1 10 -4 8 2 4 13 -8 l21 -22 -44 -96 c-25 -53 -42 -102
-38 -108 3 -7 3 -9 -2 -5 -4 4 -26 -32 -47 -80 -22 -48 -46 -99 -54 -114 -8
-16 -12 -28 -7 -28 4 0 2 -4 -5 -9 -7 -4 -14 -14 -16 -22 -1 -8 -10 -29 -19
-47 -10 -18 -15 -38 -11 -44 4 -6 3 -8 -3 -5 -10 6 -61 -100 -52 -107 14 -11
139 -74 139 -70 0 3 14 -6 31 -20 17 -14 35 -24 40 -20 5 3 9 1 9 -4 0 -4 18
-18 39 -29 29 -16 42 -18 51 -9 8 8 10 7 5 -6 -5 -12 -2 -18 8 -18 8 0 17 -4
19 -8 3 -8 164 -100 246 -141 23 -12 42 -25 42 -29 0 -4 -32 -58 -70 -120 -38
-62 -70 -116 -70 -121 0 -5 -3 -11 -8 -13 -17 -7 -73 -108 -66 -119 4 -7 3 -9
-3 -6 -9 6 -143 -194 -157 -234 -3 -8 12 -27 39 -46 47 -35 61 -41 49 -20 -4
7 -3 9 2 4 5 -5 9 -14 9 -20 1 -7 6 -11 13 -9 7 1 12 -2 12 -7 0 -12 301 -234
317 -234 7 0 10 -3 8 -7 -7 -12 85 -72 101 -66 10 4 13 2 8 -6 -4 -6 0 -16 8
-22 13 -9 -10 -42 -139 -199 -86 -107 -150 -194 -146 -200 3 -7 2 -9 -2 -4
-10 9 -47 -22 -39 -34 3 -5 1 -9 -4 -9 -12 0 -126 -140 -115 -140 4 0 77 -68
162 -150 84 -82 159 -148 165 -147 6 1 10 -3 9 -9 -2 -10 23 -35 155 -157 17
-16 32 -33 32 -37 0 -4 -15 -21 -32 -37 -132 -122 -157 -147 -155 -157 1 -6
-3 -10 -9 -9 -6 1 -81 -65 -165 -147 -85 -82 -158 -150 -162 -150 -12 0 104
-140 116 -140 6 0 7 -3 4 -7 -10 -9 24 -44 36 -36 5 3 7 1 4 -4 -4 -6 62 -96
146 -199 l153 -188 -25 -21 c-14 -11 -45 -33 -68 -49 -24 -16 -41 -32 -38 -36
2 -3 -1 -7 -8 -7 -16 0 -317 -222 -317 -234 0 -5 -5 -8 -12 -6 -7 1 -12 -3
-13 -10 0 -6 -4 -15 -9 -20 -5 -5 -6 -3 -2 5 12 20 -2 14 -49 -21 -27 -19 -42
-38 -39 -46 14 -40 148 -240 157 -234 6 3 7 1 3 -6 -7 -11 49 -112 66 -119 5
-2 8 -8 8 -13 0 -5 32 -59 70 -121 39 -62 70 -116 70 -120 0 -4 -19 -17 -42
-29 -82 -41 -243 -133 -246 -141 -2 -4 -11 -8 -19 -8 -10 0 -13 -6 -8 -17 5
-14 3 -15 -5 -7 -9 9 -22 7 -51 -9 -21 -11 -39 -25 -39 -29 0 -5 -4 -7 -9 -4
-5 4 -23 -6 -40 -20 -17 -14 -31 -23 -31 -20 0 4 -125 -59 -139 -70 -9 -7 42
-113 52 -107 6 3 7 1 3 -5 -4 -6 0 -25 9 -42 8 -16 15 -32 15 -35 -1 -3 10
-27 24 -53 13 -26 42 -86 64 -134 21 -48 42 -85 46 -81 4 4 4 0 0 -10 -3 -9
-2 -17 3 -17 5 0 10 -6 10 -12 0 -7 16 -48 36 -91 l36 -78 -21 -22 c-11 -12
-17 -16 -13 -8 4 7 4 12 -1 10 -5 -2 -53 -22 -106 -43 -54 -22 -95 -42 -93
-46 3 -4 -3 -7 -13 -6 -29 2 -192 -66 -185 -77 3 -5 2 -7 -4 -4 -12 8 -73 -14
-73 -26 0 -4 -4 -6 -10 -2 -5 3 -17 1 -27 -4 -10 -5 -44 -19 -75 -31 -32 -12
-56 -25 -54 -29 2 -3 27 -82 56 -176 29 -93 56 -175 61 -181 5 -6 6 -14 2 -17
-3 -4 -1 -7 5 -7 6 0 9 -7 5 -17 -5 -12 -3 -14 7 -8 9 5 11 4 6 -4 -8 -12 42
-191 53 -191 3 0 7 -14 8 -31 1 -17 8 -37 14 -45 9 -11 8 -14 -5 -14 -9 0 -16
-5 -16 -11 0 -5 -4 -8 -8 -5 -14 8 -166 -34 -178 -50 -10 -12 -13 -12 -18 -2
-5 10 -7 10 -12 0 -3 -6 -10 -10 -15 -7 -13 9 -131 -25 -153 -44 -11 -9 -16
-10 -12 -3 7 12 -6 17 -17 5 -4 -3 -21 -8 -39 -10 -18 -2 -34 -7 -37 -11 -4
-4 -19 -8 -36 -10 -16 -2 -34 -8 -40 -14 -7 -8 -6 -9 2 -4 6 3 14 2 17 -3 7
-10 -13 -9 -30 1 -15 10 -95 -13 -101 -28 -3 -8 2 -53 12 -102 9 -48 19 -100
21 -117 3 -16 9 -52 15 -80 6 -27 12 -62 14 -76 2 -14 11 -64 20 -110 9 -46
19 -102 21 -124 3 -22 9 -41 13 -43 9 -3 2 -62 -8 -63 -3 0 -19 -3 -36 -5 -97
-14 -176 -25 -215 -29 -25 -3 -137 -18 -250 -33 l-205 -28 1 -60 c0 -79 13
-345 19 -414 2 -30 7 -102 10 -160 l6 -105 -365 2 -366 3 -4 -23 c-3 -12 -5
-35 -5 -52 1 -16 -6 -120 -15 -230 -8 -110 -15 -209 -15 -220 1 -54 -17 -210
-24 -209 -4 1 -58 7 -120 14 -61 6 -125 13 -142 16 -169 23 -451 52 -455 46
-5 -5 -65 -294 -95 -457 -3 -16 -16 -79 -28 -140 -22 -107 -24 -110 -48 -106
-13 3 -36 5 -51 5 -14 1 -25 3 -23 6 6 10 -424 112 -436 104 -7 -4 -9 -3 -6 4
6 9 -24 18 -93 27 -8 1 -23 5 -32 9 -10 3 -24 8 -32 10 -11 4 -42 -76 -127
-332 -61 -185 -115 -341 -120 -346 -5 -5 -27 -2 -53 8 -25 10 -51 14 -57 10
-8 -4 -9 -3 -5 4 7 11 -7 16 -41 15 -7 -1 -11 2 -9 6 4 6 -253 110 -285 114
-7 2 -20 6 -27 11 -21 13 -186 76 -199 76 -12 0 -15 -7 -12 -26 0 -4 -4 -10
-9 -13 -13 -8 -245 -490 -245 -508 0 -7 -4 -13 -8 -13 -7 0 -15 -18 -21 -45
-1 -5 -9 -18 -18 -28 -19 -20 6 -30 -231 97 -47 25 -90 43 -95 38 -5 -4 -6 -3
-1 2 9 11 -262 158 -276 149 -6 -3 -7 -2 -4 4 4 6 -6 16 -20 22 -24 11 -29 10
-44 -11 -10 -12 -15 -26 -13 -30 3 -4 0 -8 -6 -8 -7 0 -9 -7 -6 -16 3 -8 2
-12 -4 -9 -13 8 -63 -73 -54 -87 4 -6 3 -8 -3 -5 -11 7 -106 -129 -106 -150 0
-7 -4 -13 -8 -13 -14 0 -50 -70 -43 -82 4 -7 4 -10 -1 -6 -10 10 -22 -4 -84
-100 l-54 -82 -25 16 c-13 9 -112 79 -219 155 -107 77 -198 137 -204 133 -5
-3 -8 -1 -7 5 3 10 -132 113 -143 109 -8 -3 -229 -265 -229 -271 0 -2 -18 -23
-40 -47 -22 -24 -38 -50 -36 -56 3 -7 0 -11 -7 -9 -17 6 -80 -72 -71 -88 4 -6
3 -9 -1 -4 -5 4 -25 -11 -46 -34 -27 -30 -41 -39 -52 -33 -8 5 -50 42 -92 81
-43 40 -82 70 -88 66 -5 -3 -7 -1 -4 4 4 6 -16 32 -44 58 -44 41 -52 45 -67
33 -15 -12 -16 -11 -3 5 12 16 9 22 -12 18 -5 -1 -6 3 -3 7 7 11 -140 147
-159 147 -8 0 -17 4 -22 9 -4 5 -3 6 5 2 20 -12 14 3 -13 32 l-25 27 -25 -27
c-27 -29 -33 -44 -12 -32 7 4 8 3 4 -2 -5 -5 -14 -9 -22 -9 -19 0 -166 -136
-159 -147 3 -4 2 -8 -3 -7 -21 4 -24 -2 -12 -18 13 -16 12 -17 -3 -5 -15 12
-23 8 -67 -33 -28 -26 -48 -52 -44 -58 3 -5 1 -7 -4 -4 -6 4 -45 -26 -88 -66
-42 -39 -84 -76 -92 -81 -11 -6 -25 3 -52 33 -21 23 -41 38 -46 34 -4 -5 -5
-2 -1 4 9 16 -54 94 -71 88 -7 -2 -10 2 -7 9 2 6 -14 32 -36 56 -22 24 -40 45
-40 47 0 6 -221 268 -229 271 -11 4 -146 -99 -143 -109 1 -6 -2 -8 -7 -5 -6 4
-97 -56 -204 -133 -107 -76 -206 -146 -219 -155 l-25 -16 -54 82 c-62 96 -74
110 -84 100 -5 -4 -5 -1 -1 6 7 12 -29 82 -43 82 -4 0 -8 6 -8 13 0 21 -95
157 -106 150 -6 -3 -7 -1 -3 5 9 14 -41 95 -54 87 -6 -3 -7 1 -4 9 3 9 1 16
-6 16 -6 0 -9 4 -6 8 2 4 -3 18 -13 30 -15 21 -20 22 -44 11 -14 -6 -24 -16
-20 -22 3 -6 2 -7 -4 -4 -12 7 -285 -137 -278 -146 3 -4 2 -5 -2 -2 -3 3 -45
-16 -92 -41 -237 -127 -212 -117 -231 -97 -9 10 -16 20 -17 23 -1 18 -16 50
-22 50 -4 0 -8 6 -8 13 0 18 -232 500 -245 508 -5 3 -9 9 -9 13 3 24 0 27 -16
15 -14 -12 -16 -12 -8 0 6 11 4 13 -11 7 -10 -5 -48 -19 -83 -33 -35 -13 -74
-29 -85 -36 -12 -6 -28 -12 -35 -13 -33 -6 -289 -109 -285 -115 2 -4 -2 -7 -9
-6 -34 1 -48 -4 -41 -15 4 -7 3 -8 -5 -4 -6 4 -32 0 -57 -10 -26 -10 -48 -13
-53 -8 -5 5 -59 161 -120 346 -72 215 -117 336 -124 333 -7 -2 -21 -6 -32 -10
-11 -4 -27 -9 -35 -10 -69 -9 -99 -18 -93 -27 3 -7 1 -8 -6 -4 -12 8 -442 -94
-436 -104 2 -3 -9 -5 -23 -6 -15 0 -38 -2 -51 -5 -24 -4 -26 -1 -48 106 -12
61 -25 124 -28 140 -30 163 -90 452 -95 457 -3 4 -100 -4 -215 -17 -116 -14
-235 -28 -265 -32 -30 -3 -97 -11 -149 -17 -65 -9 -94 -9 -97 -2 -4 11 -15
166 -15 201 0 11 -7 110 -15 220 -9 110 -16 214 -15 230 0 17 -2 40 -5 53 l-4
22 -248 0 c-136 -1 -300 -1 -365 0 l-119 0 6 98 c4 53 8 124 11 157 6 78 19
343 19 419 l1 60 -205 28 c-113 15 -225 30 -250 33 -39 4 -118 15 -215 29 -16
2 -33 5 -36 5 -10 1 -17 60 -8 63 4 2 10 21 13 43 2 22 12 78 21 124 9 46 18
96 20 110 2 14 8 49 14 76 6 28 12 64 15 80 2 17 12 69 21 117 10 49 15 94 12
102 -6 15 -86 38 -101 28 -17 -10 -37 -11 -30 -1 3 5 11 6 17 3 8 -5 9 -4 2 4
-5 6 -23 12 -40 14 -16 2 -32 6 -36 10 -3 4 -19 9 -37 11 -18 2 -35 7 -39 10
-11 12 -24 7 -17 -5 4 -7 -1 -6 -12 3 -22 19 -140 53 -153 44 -5 -3 -12 1 -15
7 -5 10 -7 10 -12 0 -5 -10 -8 -10 -18 2 -12 16 -164 58 -178 50 -4 -3 -8 0
-8 5 0 6 -7 11 -16 11 -13 0 -14 3 -5 14 6 8 13 28 14 45 1 17 5 31 8 31 11 0
61 179 53 191 -5 8 -3 9 6 4 10 -6 12 -4 7 8 -4 10 -1 17 5 17 6 0 8 3 5 7 -4
3 -3 11 2 17 5 6 32 88 61 181 29 94 54 173 56 176 2 4 -22 17 -54 29 -31 12
-65 26 -75 31 -10 5 -22 7 -27 4 -6 -4 -10 -2 -10 2 0 12 -61 34 -73 26 -6 -3
-7 -1 -4 4 7 11 -156 79 -185 77 -10 -1 -16 2 -13 6 2 4 -39 24 -93 46 -53 21
-101 41 -106 43 -5 2 -5 -3 -1 -10 4 -8 -2 -4 -13 8 l-21 22 44 96 c25 53 42
102 38 108 -3 7 -3 9 2 5 4 -4 26 32 47 80 22 48 51 108 64 134 14 26 25 50
24 53 0 3 7 19 15 35 9 17 13 36 9 42 -4 6 -3 8 3 5 10 -6 61 100 52 107 -14
11 -139 74 -139 70 0 -3 -14 6 -31 20 -17 14 -35 24 -40 20 -5 -3 -9 -1 -9 4
0 4 -18 18 -39 29 -29 16 -42 18 -51 9 -8 -8 -10 -7 -5 7 5 11 2 17 -8 17 -8
0 -17 4 -19 8 -3 8 -164 100 -245 141 -24 12 -43 25 -43 29 0 4 31 58 70 120
38 62 70 116 70 121 0 5 3 11 8 13 17 7 73 108 66 119 -4 7 -3 9 3 6 9 -6 143
194 157 234 3 8 -12 27 -39 47 -47 34 -61 40 -49 20 4 -8 3 -10 -2 -5 -5 5 -9
14 -9 20 -1 7 -6 11 -13 9 -7 -1 -12 2 -12 7 0 12 -301 234 -317 234 -7 0 -10
4 -8 7 3 4 -14 20 -38 36 -23 16 -54 38 -68 49 l-25 21 153 188 c87 106 150
193 146 199 -3 7 -2 9 2 4 10 -9 47 22 39 34 -3 5 -1 9 4 9 12 0 126 140 115
140 -4 0 -77 68 -162 150 -84 82 -159 148 -165 147 -6 -1 -10 3 -9 9 2 10 -23
35 -154 157 -18 16 -33 33 -33 37 0 4 15 21 33 37 131 122 156 147 154 157 -1
6 3 10 9 9 6 -1 81 65 165 147 85 82 157 151 160 152 4 2 -98 131 -226 288
-193 237 -229 287 -217 296 8 6 12 16 8 22 -5 8 -2 10 8 6 16 -6 108 54 101
66 -2 4 1 7 8 7 16 0 317 222 317 234 0 5 5 8 12 7 7 -2 12 2 13 9 0 6 4 15 9
20 5 5 6 3 2 -4 -12 -21 2 -15 49 20 27 20 42 38 39 46 -8 24 -217 356 -226
359 -4 2 -8 8 -8 13 0 5 -31 59 -70 121 -38 62 -70 115 -70 118 0 3 64 41 143
84 78 44 143 84 145 88 2 4 11 8 19 8 10 0 13 6 8 18 -5 13 -3 14 5 6 9 -9 22
-7 51 9 21 11 39 25 39 29 0 5 4 7 9 4 5 -4 23 6 40 20 17 14 31 23 31 20 0
-4 125 59 139 70 9 7 -42 113 -52 107 -6 -3 -7 -1 -3 5 4 6 -1 26 -11 44 -9
18 -18 39 -19 47 -2 8 -9 18 -16 22 -7 5 -9 9 -5 9 5 0 1 12 -7 28 -8 15 -32
66 -54 114 -21 48 -43 84 -47 80 -5 -4 -5 -2 -2 5 4 6 -13 55 -38 108 l-44 96
21 22 c11 12 17 16 13 8 -4 -7 -4 -12 1 -10 5 2 53 22 106 43 54 22 95 42 93
46 -3 4 3 7 13 6 29 -2 192 66 185 77 -3 5 -2 7 4 4 12 -8 73 14 73 26 0 4 4
6 10 2 5 -3 17 -1 27 4 10 5 44 19 75 31 32 12 56 25 54 29 -2 3 -27 83 -56
176 -29 94 -56 175 -61 181 -5 6 -6 14 -2 17 3 4 1 7 -5 7 -6 0 -9 7 -5 17 5
12 3 14 -7 8 -9 -5 -11 -4 -6 4 8 12 -42 191 -53 191 -3 0 -7 14 -8 31 -1 17
-8 37 -14 45 -9 11 -8 14 5 14 9 0 16 5 16 11 0 5 4 8 8 5 14 -8 166 34 178
50 10 12 13 12 18 2 5 -10 7 -10 12 0 3 6 10 10 15 7 13 -9 131 25 153 44 11
9 16 10 12 4 -7 -13 6 -18 17 -6 4 3 21 8 39 10 18 2 34 7 37 11 4 4 20 8 36
10 17 2 35 8 40 14 7 8 6 9 -2 4 -6 -3 -14 -2 -17 3 -7 10 13 9 30 -1 15 -10
95 13 101 28 3 8 -2 53 -12 102 -9 48 -18 98 -21 112 -6 39 -22 125 -45 245
-11 61 -23 128 -25 150 -3 22 -9 41 -13 43 -9 3 -2 62 8 63 3 0 20 3 36 5 97
14 176 25 215 29 25 3 137 18 250 33 l205 28 -1 60 c0 77 -13 343 -19 419 -3
33 -7 104 -11 158 l-6 97 119 0 c65 1 229 1 365 0 l248 0 4 22 c3 13 5 37 5
53 -1 17 6 120 15 230 8 110 15 209 15 220 -1 54 17 210 24 209 4 -1 58 -7
120 -14 61 -6 126 -13 142 -16 169 -23 451 -52 455 -46 5 5 65 294 95 457 3
17 16 80 28 140 22 107 24 110 48 106 13 -3 36 -5 51 -5 14 -1 25 -3 23 -6 -6
-10 424 -112 436 -104 7 4 9 3 6 -4 -6 -9 24 -18 93 -27 8 -1 23 -5 33 -9 9
-3 23 -8 31 -10 11 -4 42 76 127 332 61 185 115 341 120 346 5 5 27 2 53 -8
25 -10 51 -14 57 -10 8 4 9 3 5 -4 -7 -11 7 -16 41 -15 7 1 11 -2 9 -6 -4 -6
252 -109 285 -115 7 -1 23 -7 35 -13 11 -7 50 -23 85 -36 35 -14 73 -28 83
-33 15 -6 17 -4 11 7 -8 12 -6 12 8 0 16 -12 19 -9 16 15 0 4 4 10 9 13 13 8
245 490 245 509 0 6 4 12 8 12 8 0 21 31 16 40 -1 3 7 16 19 28 l21 23 64 -35
c35 -18 103 -55 150 -80 47 -25 89 -44 92 -41 4 3 5 2 2 -2 -7 -9 266 -153
278 -146 6 3 7 2 4 -4 -4 -6 6 -16 20 -22 24 -11 29 -10 44 11 10 12 15 26 13
30 -3 4 0 8 6 8 7 0 9 7 6 16 -3 8 -2 12 4 9 13 -8 63 73 54 87 -4 6 -3 8 3 5
11 -7 106 129 106 150 0 7 4 13 8 13 14 0 50 70 43 82 -4 7 -4 10 1 6 10 -10
22 4 84 100 l54 82 25 -16 c13 -9 112 -79 219 -155 107 -77 198 -137 204 -133
5 3 8 1 7 -5 -3 -10 132 -113 143 -109 8 3 229 265 229 271 0 2 18 23 40 47
22 24 38 50 36 56 -3 7 0 11 7 9 16 -6 80 72 71 87 -4 6 -3 8 3 5 5 -3 25 12
43 34 19 21 38 39 43 39 4 0 29 -20 55 -44z m-268 -161 c0 -2 -10 -9 -22 -15
-22 -11 -22 -10 -4 4 21 17 26 19 26 11z m1540 -21 c0 -2 -9 0 -20 6 -11 6
-20 13 -20 16 0 2 9 0 20 -6 11 -6 20 -13 20 -16z m-2705 -312 c-3 -3 -11 0
-18 7 -9 10 -8 11 6 5 10 -3 15 -9 12 -12z m3850 8 c-3 -5 -12 -10 -18 -10 -7
0 -6 4 3 10 19 12 23 12 15 0z m-7441 -1675 c-4 -8 -11 -12 -16 -9 -6 4 -5 10
3 15 19 12 19 11 13 -6z m11036 0 c0 -12 -19 -12 -23 0 -4 9 -1 12 9 8 7 -3
14 -7 14 -8z m-13960 -6179 c0 -2 -8 -10 -17 -17 -16 -13 -17 -12 -4 4 13 16
21 21 21 13z m16881 -13 c13 -16 12 -17 -3 -4 -10 7 -18 15 -18 17 0 8 8 3 21
-13z m-16890 -310 c13 -16 12 -17 -3 -4 -10 7 -18 15 -18 17 0 8 8 3 21 -13z
m16899 13 c0 -2 -8 -10 -17 -17 -16 -13 -17 -12 -4 4 13 16 21 21 21 13z
m-16365 -2276 c3 -6 -1 -7 -9 -4 -18 7 -21 14 -7 14 6 0 13 -4 16 -10z m132
-265 c0 -8 -4 -12 -9 -9 -5 3 -6 10 -3 15 9 13 12 11 12 -6z m15558 6 c3 -5 2
-12 -3 -15 -5 -3 -9 1 -9 9 0 17 3 19 12 6z m-13292 -3665 c4 -10 1 -13 -8 -9
-8 3 -12 9 -9 14 7 12 11 11 17 -5z m11031 5 c3 -5 -1 -11 -9 -14 -9 -4 -12
-1 -8 9 6 16 10 17 17 5z m-7434 -1675 c0 -2 -7 -7 -16 -10 -8 -3 -12 -2 -9 4
6 10 25 14 25 6z m3845 -6 c3 -6 -1 -7 -9 -4 -18 7 -21 14 -7 14 6 0 13 -4 16
-10z m-2685 -326 c0 -2 -9 0 -20 6 -11 6 -20 13 -20 16 0 2 9 0 20 -6 11 -6
20 -13 20 -16z m1540 21 c0 -2 -10 -9 -22 -15 -22 -11 -22 -10 -4 4 21 17 26
19 26 11z"/>
<path d="M9410 18344 c-30 -37 -59 -72 -65 -78 -6 -6 -47 -54 -91 -107 -43
-52 -115 -139 -159 -191 -44 -53 -84 -97 -89 -97 -4 -1 -39 22 -77 49 -39 28
-74 48 -80 45 -5 -4 -8 -2 -7 4 2 6 -19 26 -46 46 -41 29 -52 33 -65 22 -14
-10 -14 -10 -4 4 11 13 4 22 -46 57 -55 38 -59 40 -76 24 -18 -16 -18 -16 -5
1 10 14 10 21 2 29 -7 7 -12 8 -12 3 0 -5 -7 1 -16 13 -9 14 -22 21 -31 18 -8
-3 -12 -2 -9 3 9 13 -22 34 -39 27 -10 -3 -14 -2 -9 5 6 10 -36 48 -45 40 -2
-1 -7 3 -12 10 -10 16 -3 24 -73 -84 -31 -49 -53 -93 -50 -99 5 -7 2 -8 -6 -3
-10 6 -12 4 -7 -9 4 -9 3 -15 -2 -12 -9 6 -64 -71 -64 -91 0 -7 -3 -10 -7 -8
-3 2 -15 -10 -25 -28 -10 -18 -52 -83 -92 -145 l-73 -112 -49 25 c-28 13 -95
50 -151 80 -56 30 -106 52 -112 49 -6 -4 -8 -3 -5 3 7 11 -71 50 -88 45 -5 -2
-7 0 -2 4 4 4 -46 36 -110 70 l-118 63 -36 -72 c-21 -40 -35 -75 -32 -79 2 -5
0 -8 -5 -8 -11 0 -35 -60 -24 -60 4 0 2 -4 -4 -8 -15 -9 -117 -213 -110 -219
3 -3 -2 -12 -10 -20 -11 -12 -12 -18 -3 -29 9 -11 9 -13 -2 -9 -10 4 -26 -17
-51 -69 -35 -70 -47 -80 -75 -63 -25 15 -478 187 -494 187 -10 0 -19 4 -21 9
-4 12 -116 52 -121 43 -5 -8 -28 -78 -31 -95 -2 -7 -6 -19 -9 -27 -19 -42 -75
-220 -70 -220 3 0 1 -6 -4 -12 -9 -11 -70 -187 -77 -221 -2 -7 -8 -25 -15 -42
-6 -16 -14 -36 -16 -44 -4 -9 -14 -11 -32 -6 l-27 6 19 -23 c17 -20 15 -19
-10 3 -24 21 -73 37 -242 79 -117 29 -217 49 -225 44 -7 -4 -10 -3 -5 1 6 7
-26 17 -180 55 -3 0 -23 -100 -21 -108 0 -4 -2 -14 -5 -22 -13 -34 -68 -331
-62 -340 3 -5 2 -10 -3 -10 -5 0 -14 -30 -21 -67 -30 -165 -29 -161 -64 -157
-18 2 -84 10 -147 18 -63 8 -140 17 -170 20 -30 4 -70 9 -88 12 -20 4 -38 1
-49 -7 -9 -8 -14 -9 -10 -2 8 13 -15 19 -108 28 -33 4 -72 8 -86 11 l-25 5
-18 -253 c-9 -139 -19 -287 -22 -328 -3 -41 -7 -90 -10 -107 l-5 -33 -247 -1
c-136 0 -258 -2 -272 -3 -14 -1 -65 -3 -113 -4 l-89 -2 6 -57 c3 -32 8 -105
11 -163 3 -58 8 -139 10 -180 2 -41 7 -129 11 -196 l6 -121 -113 -16 c-63 -9
-143 -19 -179 -22 -36 -4 -67 -10 -70 -14 -3 -3 -18 -7 -35 -7 -79 -1 -116 -5
-111 -12 2 -4 -10 -7 -27 -6 -34 2 -169 -15 -176 -21 -3 -4 17 -128 26 -155 3
-8 7 -31 9 -50 2 -19 23 -140 47 -268 24 -128 41 -234 38 -236 -3 -3 -23 -7
-44 -11 -20 -4 -37 -11 -37 -17 0 -5 -4 -7 -10 -3 -12 8 -61 -5 -55 -15 2 -4
-7 -5 -22 -2 -16 3 -24 1 -20 -5 4 -6 -4 -8 -20 -5 -18 3 -24 1 -19 -6 5 -8 2
-10 -8 -6 -8 3 -48 -4 -88 -15 -40 -11 -138 -38 -218 -59 -106 -29 -144 -43
-142 -53 2 -8 6 -22 8 -32 7 -40 16 -57 25 -52 5 3 6 0 3 -8 -5 -13 39 -177
54 -202 4 -5 7 -15 8 -22 4 -23 66 -219 81 -253 8 -19 17 -51 19 -71 3 -31 0
-38 -24 -49 -15 -7 -31 -14 -37 -15 -29 -7 -440 -179 -443 -186 -2 -4 -9 -6
-16 -3 -8 3 -20 -2 -29 -10 -8 -8 -17 -13 -19 -10 -4 3 -77 -22 -86 -31 -1 -1
20 -50 48 -109 27 -59 50 -111 50 -116 0 -11 30 -21 42 -13 7 4 8 1 4 -6 -5
-7 -14 -10 -22 -7 -10 4 -8 -7 7 -37 12 -23 49 -103 84 -177 41 -90 67 -134
76 -132 11 3 11 1 2 -9 -9 -9 -9 -18 -2 -31 13 -23 16 -19 -46 -52 -126 -67
-159 -86 -167 -98 -4 -7 -8 -10 -8 -6 0 4 -26 -7 -57 -24 -96 -52 -113 -64
-105 -73 4 -5 1 -5 -6 -1 -7 4 -25 0 -40 -10 -15 -10 -56 -33 -92 -52 -36 -19
-72 -40 -81 -46 -14 -10 7 -47 152 -280 93 -148 174 -273 181 -278 7 -4 9 -8
4 -8 -4 0 -2 -10 6 -22 25 -40 27 -54 7 -55 -20 -2 -229 -152 -229 -165 0 -4
-4 -8 -10 -8 -13 0 -100 -62 -100 -72 0 -4 -6 -8 -13 -8 -8 0 -22 -9 -33 -21
-10 -12 -31 -28 -47 -35 -15 -8 -25 -19 -22 -25 4 -5 2 -8 -4 -7 -12 4 -100
-54 -101 -65 0 -4 25 -39 56 -78 49 -60 59 -68 73 -57 14 11 14 11 3 -3 -13
-17 -21 -6 220 -302 48 -60 88 -112 88 -116 0 -9 -199 -206 -248 -246 -17 -15
-29 -31 -26 -36 3 -5 1 -8 -4 -7 -5 2 -60 -45 -122 -104 l-112 -108 112 -107
c62 -60 117 -107 122 -105 5 1 7 -2 4 -7 -3 -5 9 -21 26 -36 49 -40 248 -237
248 -246 0 -4 -40 -56 -88 -116 -241 -296 -233 -285 -220 -302 11 -14 11 -14
-3 -3 -14 11 -24 3 -73 -57 -31 -39 -56 -74 -56 -78 1 -11 89 -69 101 -65 6 1
8 -2 4 -7 -3 -6 7 -17 22 -25 16 -7 37 -23 47 -35 11 -12 25 -21 33 -21 7 0
13 -4 13 -8 0 -10 87 -72 100 -72 6 0 10 -4 10 -8 0 -13 209 -163 229 -165 20
-1 18 -15 -7 -54 -8 -13 -11 -23 -6 -23 4 0 1 -6 -7 -13 -27 -21 -120 -178
-113 -189 4 -6 3 -8 -2 -5 -6 3 -60 -74 -120 -171 -97 -154 -109 -178 -95
-188 9 -6 45 -27 81 -46 36 -19 77 -42 92 -52 15 -10 33 -14 40 -10 7 4 10 4
6 -1 -8 -9 9 -21 104 -73 32 -17 58 -28 58 -24 0 4 4 1 8 -6 8 -12 41 -31 167
-98 62 -33 59 -29 46 -52 -7 -13 -7 -22 2 -31 9 -10 9 -12 -2 -9 -9 2 -35 -42
-77 -132 -192 -414 -215 -463 -212 -465 9 -9 82 -34 86 -31 2 3 11 -2 19 -10
9 -8 21 -13 29 -10 7 3 14 1 16 -3 3 -7 414 -179 443 -186 6 -1 22 -8 37 -15
24 -11 27 -18 24 -49 -2 -20 -11 -52 -19 -71 -15 -34 -77 -230 -81 -253 -1 -7
-4 -16 -8 -22 -15 -25 -59 -189 -54 -202 3 -8 2 -11 -3 -8 -9 5 -18 -12 -25
-52 -2 -10 -6 -24 -8 -32 -2 -10 36 -24 142 -53 80 -21 178 -48 218 -59 40
-11 80 -18 88 -15 10 4 13 2 8 -6 -5 -7 1 -9 19 -6 16 3 24 1 20 -5 -4 -6 4
-8 20 -5 15 3 24 2 22 -2 -6 -10 43 -23 55 -15 6 4 10 2 10 -3 0 -6 17 -13 37
-17 21 -4 41 -8 44 -11 3 -2 -14 -108 -38 -236 -24 -128 -45 -249 -47 -268 -2
-19 -6 -42 -9 -50 -9 -27 -29 -151 -26 -155 7 -6 142 -23 176 -21 17 1 29 -2
27 -6 -5 -7 32 -11 111 -12 17 0 32 -4 35 -7 3 -4 34 -10 70 -14 36 -3 116
-13 178 -22 l114 -16 -7 -126 c-3 -69 -8 -153 -10 -186 -2 -33 -7 -125 -11
-205 -3 -80 -9 -149 -12 -154 -3 -5 0 -6 7 -1 9 5 9 2 0 -13 -7 -12 -10 -24
-7 -28 4 -3 166 -8 360 -11 194 -3 355 -7 357 -10 3 -2 16 -162 29 -356 14
-193 26 -353 26 -354 2 -2 149 15 194 22 22 4 30 10 25 18 -4 7 0 7 10 -2 11
-8 29 -11 49 -7 18 3 58 8 88 12 30 3 107 12 170 20 63 8 129 16 147 18 35 4
34 8 64 -157 7 -37 16 -67 21 -67 5 0 6 -5 3 -10 -6 -9 49 -306 62 -340 3 -8
5 -18 5 -22 -2 -8 18 -108 21 -108 154 38 186 48 180 55 -5 4 -2 5 5 1 14 -8
363 74 357 84 -1 3 15 6 37 7 28 1 49 9 71 30 22 19 25 21 12 5 l-19 -23 27 6
c23 6 28 3 37 -21 6 -16 13 -36 17 -44 3 -8 7 -20 9 -27 7 -34 68 -210 77
-221 5 -6 7 -12 4 -12 -5 0 51 -178 70 -220 3 -8 7 -20 9 -27 3 -17 26 -87 31
-95 5 -9 117 31 121 43 2 5 11 9 21 9 16 0 469 172 494 187 28 17 40 7 75 -63
25 -52 41 -73 51 -69 11 4 11 2 2 -9 -9 -11 -8 -17 3 -29 8 -8 13 -17 10 -20
-7 -6 95 -210 110 -219 6 -4 8 -8 4 -8 -11 0 13 -60 24 -60 5 0 7 -3 5 -7 -3
-5 11 -40 32 -80 l36 -72 118 63 c64 34 114 66 110 70 -5 4 -3 6 2 4 17 -5 95
34 88 45 -3 6 -1 7 5 3 6 -3 56 19 112 49 56 30 124 67 151 80 l49 26 32 -50
c17 -28 35 -48 41 -44 6 3 7 1 3 -5 -8 -13 173 -294 185 -286 5 3 6 -3 2 -12
-5 -13 -3 -15 7 -9 8 5 11 4 6 -3 -3 -6 19 -50 50 -99 70 -108 63 -100 73 -84
5 7 12 13 17 13 18 1 46 27 40 37 -5 7 -1 8 9 5 17 -7 48 14 39 27 -3 5 1 6 9
3 9 -3 22 4 31 18 9 12 16 18 16 13 0 -5 5 -4 12 3 8 8 8 15 -2 29 -13 17 -13
17 5 1 17 -16 21 -14 76 24 50 35 57 44 46 57 -10 14 -10 14 4 4 13 -11 24 -7
65 22 27 20 48 40 46 46 -1 6 2 8 7 4 6 -3 41 17 80 45 38 27 73 50 77 49 5 0
45 -44 89 -97 44 -52 116 -139 159 -191 44 -53 85 -101 91 -107 6 -6 35 -41
65 -78 29 -36 55 -66 57 -66 12 0 61 45 57 52 -3 5 -1 7 4 6 6 -2 61 45 124
103 62 59 149 139 193 179 44 40 95 88 114 107 18 18 37 33 41 33 4 0 23 -15
41 -33 19 -19 70 -67 114 -107 44 -40 131 -120 193 -179 63 -58 118 -105 124
-103 5 1 7 -1 4 -6 -4 -7 45 -52 57 -52 2 0 28 30 57 66 30 37 59 72 65 78 6
6 47 54 91 107 43 52 115 139 159 191 44 53 84 97 89 97 4 1 39 -22 77 -49 39
-28 74 -48 80 -45 5 4 8 2 7 -4 -2 -6 19 -26 46 -46 41 -29 52 -33 65 -22 14
10 14 10 4 -4 -11 -13 -4 -22 46 -57 55 -38 59 -40 76 -24 18 16 18 16 5 -1
-10 -14 -10 -21 -2 -29 7 -7 12 -8 12 -3 0 5 7 -1 16 -13 9 -14 22 -21 31 -18
8 3 12 2 9 -3 -9 -13 22 -34 39 -27 10 3 14 2 9 -5 -6 -10 36 -48 45 -40 2 1
7 -3 12 -10 10 -16 3 -24 73 84 31 49 53 93 50 99 -5 7 -2 8 6 3 10 -6 12 -4
7 9 -4 9 -3 15 2 12 10 -6 64 72 64 91 0 7 3 11 5 8 9 -8 123 176 116 187 -4
6 -3 8 3 5 6 -4 24 16 41 44 l32 50 49 -26 c27 -13 95 -50 151 -80 56 -30 106
-52 112 -49 6 4 8 3 5 -3 -7 -11 71 -50 88 -45 5 2 7 0 2 -4 -4 -4 46 -36 110
-70 l118 -63 47 92 c25 51 48 102 50 113 1 10 6 21 9 24 12 10 110 212 105
217 -3 3 2 12 10 20 11 12 12 18 3 29 -9 11 -9 13 2 9 10 -4 26 17 51 69 35
70 47 80 75 63 25 -15 478 -187 494 -187 10 0 19 -4 21 -9 4 -12 116 -52 121
-43 5 8 28 78 31 95 2 7 6 19 9 27 19 42 75 220 70 220 -3 0 -1 6 4 12 9 11
70 187 77 221 2 7 8 26 15 42 6 17 14 36 16 44 4 9 14 11 32 6 l27 -6 -19 23
c-13 16 -10 14 12 -5 22 -21 43 -29 71 -30 22 -1 38 -4 37 -7 -6 -10 343 -92
357 -84 7 4 10 3 5 -1 -6 -7 26 -17 180 -55 3 0 23 100 21 108 0 4 2 14 5 22
13 34 68 331 62 340 -3 5 -2 10 3 10 5 0 14 30 21 67 30 165 29 161 64 157 18
-2 84 -10 147 -18 63 -8 140 -17 170 -20 30 -4 70 -9 88 -12 20 -4 38 -1 49 7
9 8 14 9 10 2 -8 -13 15 -19 108 -28 33 -4 72 -8 86 -11 l25 -5 18 253 c9 139
19 287 22 328 3 41 7 90 10 108 l5 32 227 0 c231 1 483 9 492 17 2 2 -2 13 -9
25 -9 15 -9 18 0 13 7 -5 10 -4 7 1 -3 5 -9 74 -12 154 -4 80 -9 172 -11 205
-2 33 -7 117 -10 186 l-7 126 114 16 c62 9 142 19 178 22 36 4 67 10 70 14 3
3 19 7 35 7 79 1 116 5 111 12 -2 4 10 7 27 6 34 -2 169 15 176 21 3 4 -17
128 -26 155 -3 8 -7 31 -9 50 -2 19 -23 140 -47 268 -24 128 -41 234 -38 236
3 3 23 7 44 11 20 4 37 11 37 17 0 5 4 7 10 3 12 -8 61 5 55 15 -2 4 7 5 22 2
16 -3 24 -1 20 5 -4 6 4 8 20 5 18 -3 24 -1 19 6 -5 8 -2 10 8 6 8 -3 48 4 88
15 40 11 138 38 218 59 106 29 144 43 142 53 -2 8 -6 22 -8 32 -7 40 -16 57
-25 52 -5 -3 -6 0 -3 8 5 13 -39 177 -54 202 -4 6 -7 15 -8 22 -4 23 -66 219
-81 253 -8 19 -17 51 -19 71 -3 31 0 38 24 49 15 7 32 14 37 15 29 7 440 179
443 186 2 4 9 6 16 3 8 -3 20 2 29 10 8 8 17 13 19 10 4 -3 77 22 86 31 3 2
-20 51 -212 465 -42 90 -68 134 -77 132 -11 -3 -11 -1 -2 9 9 9 9 18 2 31 -13
23 -16 19 46 52 126 67 159 86 167 98 4 7 8 10 8 6 0 -4 26 7 58 24 95 52 112
64 104 73 -4 5 -1 5 6 1 7 -4 25 0 40 10 15 10 56 33 92 52 36 19 72 40 81 46
14 10 2 34 -95 188 -60 97 -114 174 -120 171 -5 -3 -6 -1 -2 5 7 11 -86 168
-113 190 -8 6 -11 12 -7 12 5 0 2 10 -6 23 -25 39 -27 53 -7 54 20 2 229 152
229 165 0 4 4 8 10 8 13 0 100 62 100 72 0 4 6 8 13 8 8 0 22 9 33 21 10 12
31 28 47 35 15 8 25 19 22 25 -4 5 -2 8 4 7 12 -4 100 54 101 65 0 4 -25 39
-56 78 -49 60 -59 68 -73 57 -14 -11 -14 -11 -3 3 13 17 21 6 -220 302 -48 60
-88 112 -88 116 0 9 199 206 248 246 17 15 29 31 26 36 -3 5 -1 8 4 7 5 -2 60
45 122 105 l112 107 -112 108 c-62 59 -117 106 -122 104 -5 -1 -7 2 -4 7 3 5
-9 21 -26 36 -49 40 -248 237 -248 246 0 4 40 56 88 116 241 296 233 285 220
302 -11 14 -11 14 3 3 14 -11 24 -3 73 57 31 39 56 74 56 78 -1 11 -89 69
-101 65 -6 -1 -8 2 -4 7 3 6 -7 17 -22 25 -16 7 -37 23 -47 35 -11 12 -25 21
-33 21 -7 0 -13 4 -13 8 0 10 -87 72 -100 72 -6 0 -10 4 -10 8 0 13 -209 163
-229 165 -20 1 -18 15 7 55 8 12 11 22 6 22 -4 0 -1 6 7 13 27 21 120 178 113
189 -4 6 -3 8 2 5 6 -3 60 74 120 171 97 154 109 178 95 188 -9 6 -45 27 -81
46 -36 19 -77 42 -92 52 -15 10 -33 14 -40 10 -7 -4 -10 -4 -6 1 8 9 -9 21
-104 73 -32 17 -58 28 -58 24 0 -4 -4 -1 -8 6 -8 12 -41 31 -167 98 -62 33
-59 29 -46 52 7 13 7 22 -2 31 -9 10 -9 12 2 9 9 -2 35 42 76 132 35 74 72
154 84 177 15 30 17 41 7 37 -8 -3 -17 0 -22 7 -4 7 -3 10 4 6 12 -8 42 2 42
13 0 5 23 57 50 116 28 59 49 108 48 109 -9 9 -82 34 -86 31 -2 -3 -11 2 -19
10 -9 8 -21 13 -29 10 -7 -3 -14 -1 -16 3 -3 7 -414 179 -443 186 -5 1 -22 8
-37 15 -24 11 -27 18 -24 49 2 20 11 52 19 71 15 34 77 230 81 253 1 7 4 17 8
22 15 25 59 189 54 202 -3 8 -2 11 3 8 9 -5 18 12 25 52 2 10 6 24 8 32 2 10
-36 24 -142 53 -80 21 -178 48 -218 59 -40 11 -80 18 -88 15 -10 -4 -13 -2 -8
6 5 7 -1 9 -19 6 -16 -3 -24 -1 -20 5 4 6 -4 8 -20 5 -15 -3 -24 -2 -22 2 6
10 -43 23 -55 15 -6 -4 -10 -2 -10 3 0 6 -17 13 -37 17 -21 4 -41 8 -44 11 -3
2 14 108 38 236 24 128 45 249 47 268 2 19 6 42 9 50 9 27 29 151 26 155 -7 6
-142 23 -176 21 -17 -1 -29 2 -27 6 5 7 -32 11 -111 12 -16 0 -32 4 -35 7 -3
4 -34 10 -70 14 -36 3 -116 13 -179 22 l-113 16 6 121 c4 67 9 155 11 196 2
41 7 122 10 180 3 58 8 131 11 163 l6 57 -89 2 c-48 1 -99 3 -113 4 -14 1
-136 3 -272 3 l-247 1 -5 33 c-3 17 -7 66 -10 107 -3 41 -13 189 -22 328 l-18
253 -25 -5 c-14 -3 -53 -7 -86 -11 -93 -9 -116 -15 -108 -28 4 -7 -1 -6 -10 2
-11 8 -29 11 -49 7 -18 -3 -58 -8 -88 -12 -30 -3 -107 -12 -170 -20 -63 -8
-129 -16 -147 -18 -35 -4 -34 -8 -64 157 -7 37 -16 67 -21 67 -5 0 -6 5 -3 10
6 9 -49 306 -62 340 -3 8 -5 18 -5 22 2 8 -18 108 -21 108 -154 -38 -186 -48
-180 -55 5 -4 2 -5 -5 -1 -8 5 -108 -15 -225 -44 -169 -42 -218 -58 -242 -79
-25 -22 -27 -23 -10 -3 l19 23 -27 -6 c-23 -6 -28 -3 -37 21 -6 16 -13 36 -17
44 -3 8 -7 20 -9 27 -7 34 -68 210 -77 221 -5 6 -7 12 -4 12 5 0 -51 178 -70
220 -3 8 -7 20 -9 27 -3 17 -26 87 -31 95 -5 9 -117 -31 -121 -43 -2 -5 -11
-9 -21 -9 -16 0 -469 -172 -494 -187 -28 -17 -40 -7 -75 63 -25 52 -41 73 -51
69 -11 -4 -11 -2 -2 9 9 11 8 17 -3 29 -8 8 -13 17 -10 20 7 6 -95 210 -110
219 -6 4 -8 8 -4 8 11 0 -13 60 -24 60 -5 0 -7 3 -5 8 3 4 -11 39 -32 79 l-36
72 -118 -63 c-64 -34 -114 -66 -110 -70 5 -4 3 -6 -2 -4 -17 5 -95 -34 -88
-45 3 -6 1 -7 -5 -3 -6 3 -56 -19 -112 -49 -56 -30 -124 -67 -151 -80 l-49
-26 -32 50 c-17 28 -35 48 -41 44 -6 -3 -7 -1 -3 5 7 11 -107 195 -116 187 -2
-3 -5 1 -5 8 0 19 -54 97 -64 91 -5 -3 -6 3 -2 12 5 13 3 15 -7 9 -8 -5 -11
-4 -6 3 3 6 -19 50 -50 99 -70 108 -63 100 -73 84 -5 -7 -12 -13 -17 -13 -18
-1 -46 -27 -40 -37 5 -7 1 -8 -9 -5 -17 7 -48 -14 -39 -27 3 -5 -1 -6 -9 -3
-9 3 -22 -4 -31 -18 -9 -12 -16 -18 -16 -13 0 5 -5 4 -12 -3 -8 -8 -8 -15 2
-29 13 -17 13 -17 -5 -1 -17 16 -21 14 -76 -24 -50 -35 -57 -44 -46 -57 10
-14 10 -14 -4 -4 -13 11 -24 7 -65 -22 -27 -20 -48 -40 -46 -46 1 -6 -2 -8 -7
-4 -6 3 -41 -17 -80 -45 -38 -27 -73 -50 -77 -49 -5 0 -45 44 -89 97 -44 52
-116 139 -159 191 -44 53 -85 101 -91 107 -6 6 -35 41 -65 78 -29 36 -55 66
-57 66 -12 0 -61 -45 -57 -52 3 -5 1 -7 -4 -6 -6 2 -61 -45 -124 -103 -62 -59
-149 -139 -193 -179 -44 -40 -95 -88 -114 -107 -18 -18 -37 -33 -41 -33 -4 0
-23 15 -41 33 -19 19 -70 67 -114 107 -44 40 -131 120 -193 179 -63 58 -118
105 -124 103 -5 -1 -7 1 -4 6 4 7 -45 52 -57 52 -2 0 -28 -30 -57 -66z m216
-141 c-1 -12 6 -17 18 -16 13 1 15 -2 7 -10 -14 -14 -47 15 -37 32 10 16 14
14 12 -6z m751 -20 c-12 -13 -20 -14 -28 -6 -8 8 -6 11 7 10 13 -1 18 4 17 17
-1 13 2 15 10 7 8 -8 7 -16 -6 -28z m-2174 -278 c-3 -9 -8 -14 -10 -11 -3 3
-2 9 2 15 9 16 15 13 8 -4z m877 12 c0 -2 -10 -12 -22 -23 l-23 -19 19 23 c18
21 26 27 26 19z m1865 -17 c10 -11 16 -20 13 -20 -3 0 -13 9 -23 20 -10 11
-16 20 -13 20 3 0 13 -9 23 -20z m863 -5 c-3 -3 -9 2 -12 12 -6 14 -5 15 5 6
7 -7 10 -15 7 -18z m-2284 -257 c-5 -7 10 -12 29 -9 4 0 6 -2 5 -6 -1 -5 6
-21 17 -37 24 -37 25 -114 1 -150 -77 -118 -256 -68 -256 72 0 92 57 144 152
140 31 -1 54 -6 52 -10z m1065 -38 c77 -41 91 -159 26 -220 -13 -13 -22 -27
-18 -33 3 -6 2 -7 -4 -4 -5 3 -33 3 -60 -2 -36 -5 -55 -4 -68 5 -10 8 -21 11
-25 9 -4 -2 -17 13 -31 34 -13 22 -26 38 -29 36 -10 -6 7 110 20 137 7 14 21
29 32 31 11 3 17 10 14 16 -4 6 2 8 14 6 11 -2 20 0 20 4 0 10 82 -4 109 -19z
m-1989 -105 c41 -40 57 -93 41 -144 -12 -40 -61 -91 -87 -91 -9 0 -13 -4 -10
-8 10 -16 -90 6 -125 27 -19 12 -30 21 -25 21 5 0 2 7 -5 16 -16 19 -29 124
-16 124 5 0 4 7 -3 15 -11 13 -10 14 2 10 9 -4 18 1 21 9 4 9 21 25 39 36 49
31 128 23 168 -15z m2981 -2 c13 -16 12 -17 -3 -4 -17 13 -22 21 -14 21 2 0
10 -8 17 -17z m-101 -9 c0 4 14 -6 32 -23 26 -24 35 -28 48 -18 12 9 13 9 3
-3 -14 -15 -18 -34 -5 -26 4 2 8 -3 9 -12 7 -78 8 -92 2 -92 -6 0 -22 -39 -21
-51 1 -3 -16 -15 -38 -25 -21 -10 -36 -22 -34 -25 6 -10 -77 1 -111 14 -35 13
-46 23 -62 57 -13 27 -24 122 -14 116 3 -3 15 13 25 35 11 21 21 37 24 34 3
-3 11 0 18 5 19 16 97 28 112 17 6 -5 12 -6 12 -3z m-1900 -88 c0 -2 -8 -10
-17 -17 -16 -13 -17 -12 -4 4 13 16 21 21 21 13z m-1878 -148 c9 -1 15 -4 13
-7 -3 -2 7 -17 20 -33 14 -16 25 -36 25 -44 0 -8 4 -14 8 -14 10 0 9 -53 -1
-61 -5 -4 -10 -18 -10 -32 -1 -14 -4 -23 -6 -21 -3 2 -17 -8 -32 -22 -43 -41
-114 -45 -173 -10 -25 15 -45 30 -45 34 4 28 -1 34 -18 21 -16 -12 -17 -12 -7
1 7 8 14 38 17 65 8 80 11 87 58 112 44 24 48 24 151 11z m4874 -45 c42 -30
57 -71 52 -138 -4 -45 -10 -58 -33 -76 -33 -27 -97 -61 -89 -48 3 5 -10 9 -30
9 -22 0 -45 9 -64 25 -16 13 -33 21 -37 17 -5 -4 -6 -2 -3 3 4 6 -2 27 -12 47
-16 33 -16 42 -5 75 7 21 27 54 45 74 30 34 36 36 89 35 41 -1 64 -7 87 -23z
m-2016 -97 c30 -2 73 -6 95 -9 22 -3 63 -8 90 -11 113 -12 156 -18 290 -38 77
-11 154 -22 170 -23 17 -2 37 -5 45 -8 31 -12 141 -28 150 -22 6 3 10 2 10 -3
0 -5 20 -13 45 -16 24 -4 91 -18 147 -32 57 -14 112 -27 123 -28 11 -2 27 -6
35 -9 43 -16 205 -55 212 -51 4 3 8 1 8 -3 0 -8 161 -58 185 -58 6 0 12 -3 15
-6 9 -10 162 -59 170 -54 5 3 10 1 12 -3 1 -5 55 -28 118 -51 63 -23 130 -48
148 -56 40 -18 45 -19 36 -2 -5 6 7 0 25 -15 18 -16 37 -28 42 -28 15 0 255
-107 382 -171 65 -33 123 -57 129 -53 6 4 8 3 5 -3 -3 -5 31 -27 76 -49 45
-21 85 -43 88 -48 4 -5 12 -5 19 -1 8 5 11 4 7 -1 -5 -9 131 -91 146 -86 4 1
7 -2 7 -6 0 -14 79 -54 92 -46 6 4 8 3 5 -4 -7 -11 185 -135 209 -135 7 0 11
-4 9 -8 -7 -10 44 -41 56 -34 5 4 8 2 7 -4 -3 -11 140 -114 159 -114 7 0 10
-4 7 -9 -5 -7 10 -12 28 -9 5 0 7 -3 5 -8 -3 -14 64 -61 77 -54 6 3 8 3 4 -1
-4 -5 59 -60 140 -123 81 -64 190 -153 243 -199 53 -46 100 -80 104 -76 5 4 5
2 1 -5 -8 -14 29 -37 44 -28 5 3 7 0 4 -8 -3 -8 15 -31 43 -56 103 -92 318
-308 448 -451 28 -30 53 -54 57 -52 5 1 7 -1 5 -6 -4 -13 85 -112 96 -105 6 3
7 2 4 -4 -4 -6 9 -28 27 -49 18 -21 85 -105 148 -186 64 -81 119 -144 124
-140 4 4 4 2 1 -4 -7 -13 40 -80 54 -77 5 2 8 0 8 -5 -3 -18 2 -33 9 -28 5 3
9 0 9 -7 0 -7 36 -64 79 -127 44 -63 108 -161 143 -218 36 -59 67 -99 73 -95
7 3 8 1 4 -6 -7 -11 28 -79 47 -92 5 -3 8 -9 7 -13 -3 -15 75 -144 84 -139 5
4 6 1 1 -7 -4 -7 -4 -15 1 -19 21 -15 324 -651 324 -680 0 -5 12 -24 28 -42
15 -18 21 -29 13 -24 -11 6 -13 4 -7 -11 4 -10 31 -80 59 -154 27 -74 54 -137
59 -138 4 -2 6 -7 3 -12 -5 -8 44 -161 54 -170 3 -3 6 -9 7 -15 1 -29 17 -85
24 -85 4 0 7 -6 7 -12 -2 -26 16 -88 25 -88 5 0 7 -4 4 -8 -4 -7 35 -169 51
-212 3 -8 7 -24 8 -35 2 -11 12 -56 23 -100 11 -44 26 -110 33 -147 7 -38 17
-68 21 -68 5 0 6 -4 3 -10 -6 -9 10 -119 22 -150 3 -8 6 -28 8 -45 1 -16 12
-95 24 -175 25 -166 28 -189 37 -285 3 -38 8 -79 11 -90 24 -121 24 -1189 0
-1310 -3 -11 -8 -51 -11 -90 -9 -96 -12 -119 -37 -285 -12 -80 -23 -158 -24
-175 -2 -16 -5 -37 -8 -45 -12 -31 -28 -141 -22 -150 3 -6 2 -10 -3 -10 -4 0
-14 -30 -21 -68 -7 -37 -22 -103 -33 -147 -11 -44 -21 -89 -23 -100 -1 -11 -5
-27 -8 -35 -16 -43 -55 -205 -51 -212 3 -4 1 -8 -4 -8 -9 0 -27 -62 -25 -87 0
-7 -3 -13 -7 -13 -7 0 -23 -56 -24 -85 -1 -5 -4 -12 -7 -15 -10 -9 -59 -162
-54 -170 3 -5 1 -10 -3 -12 -5 -1 -32 -64 -59 -138 -28 -74 -55 -144 -59 -154
-6 -15 -4 -17 7 -11 8 5 4 -3 -7 -16 -12 -13 -38 -64 -59 -114 -43 -106 -286
-607 -299 -616 -5 -4 -5 -12 -1 -19 5 -8 4 -11 -1 -7 -9 5 -87 -124 -84 -139
1 -4 -2 -10 -7 -13 -19 -13 -54 -81 -47 -92 4 -7 3 -9 -4 -6 -6 4 -37 -36 -73
-95 -35 -57 -99 -155 -143 -218 -43 -63 -79 -120 -79 -127 0 -7 -4 -10 -9 -7
-7 5 -12 -10 -9 -29 0 -4 -3 -6 -8 -5 -14 4 -61 -63 -54 -76 3 -6 3 -8 -2 -4
-4 4 -43 -39 -86 -95 -79 -101 -99 -127 -177 -221 -23 -27 -38 -54 -35 -59 3
-6 2 -7 -4 -4 -11 7 -100 -92 -95 -105 1 -5 -1 -7 -5 -6 -5 2 -30 -22 -58 -52
-130 -143 -345 -359 -448 -451 -28 -25 -46 -48 -43 -56 3 -8 1 -11 -4 -8 -15
9 -52 -14 -44 -28 4 -7 4 -9 0 -5 -5 4 -54 -32 -110 -80 -122 -105 -151 -128
-283 -231 -56 -43 -99 -82 -95 -86 4 -5 2 -5 -4 -2 -13 7 -80 -40 -76 -54 1
-5 -1 -8 -5 -8 -19 3 -34 -2 -29 -9 3 -5 0 -9 -7 -9 -19 0 -162 -103 -159
-114 1 -6 -2 -8 -7 -4 -12 7 -63 -24 -56 -34 2 -4 -2 -8 -9 -8 -24 0 -216
-124 -209 -135 3 -7 1 -8 -5 -4 -13 8 -92 -32 -92 -46 0 -4 -3 -7 -7 -6 -5 2
-66 -30 -138 -69 -71 -39 -147 -79 -167 -89 -20 -9 -34 -22 -31 -27 3 -6 1 -7
-5 -3 -6 4 -64 -20 -129 -53 -127 -64 -367 -171 -382 -171 -5 0 -24 -12 -42
-27 -18 -16 -30 -22 -25 -15 9 16 4 15 -36 -3 -18 -8 -85 -33 -148 -56 -63
-23 -117 -46 -118 -51 -2 -4 -7 -6 -12 -3 -8 5 -161 -44 -170 -54 -3 -3 -9 -6
-15 -7 -29 -1 -85 -17 -85 -24 0 -4 -6 -7 -12 -7 -26 2 -88 -16 -88 -25 0 -5
-4 -7 -8 -4 -7 4 -169 -35 -212 -51 -8 -3 -24 -7 -35 -8 -11 -2 -56 -12 -100
-23 -44 -11 -110 -26 -147 -33 -38 -7 -68 -17 -68 -21 0 -5 -4 -6 -10 -3 -9 6
-119 -10 -150 -22 -8 -3 -28 -6 -45 -8 -16 -1 -95 -12 -175 -24 -166 -25 -189
-28 -285 -37 -38 -3 -79 -8 -90 -11 -121 -24 -1189 -24 -1310 0 -11 3 -51 8
-90 11 -96 9 -119 12 -285 37 -80 12 -158 23 -175 24 -16 2 -37 5 -45 8 -31
12 -141 28 -150 22 -6 -3 -10 -2 -10 3 0 4 -30 14 -67 21 -38 7 -104 22 -148
33 -44 11 -89 21 -100 23 -11 1 -27 5 -35 8 -43 16 -205 55 -212 51 -4 -3 -8
-1 -8 3 0 8 -161 58 -185 58 -5 0 -12 3 -15 6 -9 10 -162 59 -170 54 -5 -3
-10 -1 -12 3 -1 5 -55 28 -118 51 -63 23 -130 48 -148 56 -40 18 -45 19 -36 3
5 -7 -7 -1 -25 14 -18 16 -37 28 -42 28 -15 0 -255 107 -382 171 -65 33 -123
57 -129 53 -6 -4 -8 -3 -5 3 3 5 -31 27 -76 49 -45 21 -85 43 -88 48 -4 5 -12
5 -19 1 -8 -5 -11 -4 -7 1 5 9 -131 91 -145 86 -5 -1 -8 2 -8 6 0 14 -79 54
-92 46 -6 -4 -8 -3 -5 4 7 11 -185 135 -209 135 -7 0 -11 4 -9 8 7 10 -44 41
-56 34 -5 -4 -8 -2 -7 4 3 11 -140 114 -159 114 -7 0 -10 4 -7 9 5 7 -10 12
-29 9 -4 0 -6 3 -5 8 4 14 -63 61 -76 54 -6 -3 -8 -3 -4 1 4 5 -59 60 -140
123 -81 64 -190 153 -243 199 -53 46 -100 80 -104 76 -5 -4 -5 -2 -1 5 8 14
-29 37 -44 28 -5 -3 -7 0 -4 8 3 8 -15 31 -43 56 -103 92 -318 308 -448 451
-28 30 -53 54 -58 52 -4 -1 -6 1 -5 6 5 13 -84 112 -95 105 -6 -3 -7 -2 -4 4
4 6 -9 28 -27 49 -18 21 -85 105 -148 186 -64 81 -119 144 -124 140 -4 -4 -4
-2 -1 4 7 13 -40 80 -54 76 -5 -1 -8 1 -8 5 3 21 -2 33 -13 27 -6 -4 -8 -3 -5
3 8 13 -37 75 -48 65 -5 -4 -5 -2 -2 4 4 6 -19 49 -51 95 -31 46 -86 130 -120
187 -37 59 -68 99 -74 95 -7 -3 -8 -1 -4 6 7 11 -28 79 -47 92 -5 3 -7 8 -6
10 6 9 -76 147 -85 142 -5 -4 -6 -1 -1 7 4 7 4 15 -1 19 -21 15 -324 651 -324
680 0 5 -12 24 -28 42 -15 18 -21 29 -13 24 11 -6 13 -4 7 11 -4 10 -31 80
-59 154 -27 74 -54 137 -59 138 -4 2 -6 7 -3 12 5 8 -44 161 -54 170 -3 3 -6
10 -6 15 0 24 -50 185 -58 185 -4 0 -6 4 -3 8 4 7 -35 169 -51 212 -3 8 -7 24
-9 35 -1 11 -14 66 -28 123 -14 56 -28 123 -32 147 -3 25 -11 45 -16 45 -5 0
-6 4 -3 10 6 9 -10 119 -22 150 -3 8 -6 29 -8 45 -1 17 -12 95 -24 175 -25
166 -28 189 -37 285 -3 39 -8 79 -11 90 -24 121 -24 1189 0 1310 3 11 8 52 11
90 9 96 12 119 37 285 12 80 23 159 24 175 2 17 5 37 8 45 12 31 28 141 22
150 -3 6 -2 10 3 10 5 0 13 20 16 45 4 24 18 91 32 147 14 57 27 112 28 123 2
11 6 27 9 35 16 43 55 205 51 212 -3 4 -1 8 3 8 8 0 58 161 58 185 0 6 3 12 6
15 10 9 59 162 54 170 -3 5 -1 10 3 12 5 1 32 64 59 138 28 74 55 144 59 154
6 15 4 17 -7 11 -8 -5 -4 3 8 16 27 30 45 77 36 92 -3 7 -3 9 2 5 4 -4 36 54
69 130 77 170 238 495 250 503 5 4 5 12 1 19 -5 8 -4 11 1 7 9 -5 83 117 82
137 0 5 4 12 9 15 19 13 54 81 47 92 -4 7 -3 9 4 6 6 -4 37 36 74 95 34 57 89
141 120 187 32 46 55 89 51 95 -3 6 -3 8 2 4 11 -10 56 52 48 65 -3 6 -1 7 5
3 11 -7 17 6 13 27 -1 5 2 6 7 3 11 -7 55 52 47 64 -3 5 0 12 6 16 8 5 9 3 4
-7 -15 -26 2 -5 84 101 81 104 101 129 179 224 23 27 38 54 35 59 -3 6 -2 7 4
4 11 -7 100 92 95 106 -1 5 1 6 5 4 5 -3 31 21 58 53 28 32 136 144 241 249
105 105 189 193 187 196 -2 3 0 3 4 0 9 -7 44 26 37 37 -3 4 0 7 8 6 7 -2 12
5 12 14 -1 10 2 15 7 12 14 -8 50 16 43 29 -4 7 -4 9 1 5 4 -4 51 30 104 76
53 46 162 135 243 199 81 63 144 118 140 123 -4 4 -2 4 4 1 13 -7 80 40 77 54
-2 5 0 8 5 8 18 -3 33 2 28 9 -3 5 0 9 7 9 19 0 162 103 159 114 -1 6 2 8 7 4
12 -7 63 24 56 34 -2 4 2 8 9 8 24 0 216 124 209 135 -3 7 -1 8 5 4 13 -8 92
32 92 46 0 4 3 7 8 6 14 -5 150 77 145 86 -4 5 -1 6 7 1 7 -4 15 -4 19 1 3 5
43 27 88 48 45 22 79 44 76 49 -3 6 -1 7 5 3 6 -4 64 20 129 53 127 64 367
171 382 171 5 0 24 12 42 28 18 15 30 21 25 15 -9 -17 -4 -16 36 2 18 8 85 33
148 56 63 23 117 46 118 51 2 4 7 6 12 3 8 -5 161 44 170 54 3 3 10 6 15 6 24
0 185 50 185 58 0 4 4 6 8 3 7 -4 169 35 212 51 8 3 24 7 35 9 11 1 66 14 123
28 56 14 123 28 147 32 25 3 45 11 45 16 0 5 4 6 10 3 9 -6 119 10 150 22 8 3
29 6 45 8 17 1 95 12 175 24 166 25 189 28 285 37 39 3 79 8 90 11 11 2 81 6
155 9 74 3 137 8 140 11 5 5 814 -5 920 -11z m-3702 -226 c41 -25 72 -76 72
-118 0 -36 -24 -91 -48 -108 -8 -6 -13 -15 -10 -20 3 -5 -24 -10 -61 -12 -58
-3 -72 0 -105 23 -31 21 -37 23 -32 8 4 -9 3 -14 -1 -9 -10 10 -15 43 -16 121
-2 48 2 65 18 82 50 54 126 68 183 33z m6573 -2 c21 -11 43 -33 49 -49 15 -35
19 -110 7 -126 -5 -7 -6 -13 -2 -13 23 0 -73 -60 -104 -65 -71 -11 -80 -12
-77 -6 2 3 -13 17 -33 29 -21 13 -39 29 -40 35 -13 70 -11 130 4 153 41 63
127 81 196 42z m-7418 -437 c38 -15 67 -70 67 -129 0 -43 -5 -57 -30 -86 -39
-44 -86 -61 -134 -47 -20 5 -36 7 -36 4 0 -3 -17 12 -38 33 -21 22 -37 45 -34
51 2 7 -4 16 -13 19 -9 4 -13 10 -8 13 8 5 36 83 37 104 1 5 17 17 36 28 38
20 114 25 153 10z m8255 -62 c62 -49 63 -161 2 -213 -95 -80 -230 -17 -230
106 0 92 53 140 146 135 36 -3 61 -11 82 -28z m-8191 -402 c0 -8 -6 -14 -14
-14 -9 0 -10 4 -2 14 6 7 12 13 14 13 1 0 2 -6 2 -13z m7862 0 c8 -10 7 -14
-2 -14 -8 0 -14 6 -14 14 0 7 1 13 2 13 2 0 8 -6 14 -13z m-8669 -98 c51 -15
88 -71 85 -130 -4 -85 -59 -139 -143 -139 -44 0 -98 31 -114 65 -6 13 -14 22
-18 20 -4 -2 -6 8 -4 23 8 69 7 88 0 101 -6 9 -5 12 1 8 6 -4 29 11 51 32 44
40 64 43 142 20z m9706 2 c-3 -4 5 -13 18 -19 13 -6 39 -32 57 -58 17 -26 27
-44 21 -40 -8 5 -12 -5 -12 -31 0 -75 -87 -143 -165 -129 -62 12 -115 73 -115
134 0 15 -6 34 -12 41 -11 10 -10 11 5 6 12 -5 17 -2 19 11 0 11 2 26 2 34 1
8 7 14 14 12 7 -1 15 5 18 13 3 8 10 12 15 9 5 -3 9 -1 9 4 0 5 26 10 57 11
32 1 60 4 62 7 8 7 12 4 7 -5z m-9856 -4 c0 -2 -10 -12 -22 -23 l-23 -19 19
23 c18 21 26 27 26 19z m364 -343 c3 -8 2 -12 -4 -9 -6 3 -10 10 -10 16 0 14
7 11 14 -7z m9037 -7 c-10 -9 -11 -8 -5 6 3 10 9 15 12 12 3 -3 0 -11 -7 -18z
m-9940 -269 c53 -30 71 -95 48 -178 -2 -8 -19 -27 -38 -42 -77 -63 -174 -41
-220 50 -16 33 -17 43 -6 85 13 50 37 84 70 98 39 15 106 10 146 -13z m11150
-50 c6 -15 14 -26 18 -23 4 2 4 -23 0 -57 -5 -46 -13 -67 -35 -89 -37 -38 -91
-53 -143 -39 -40 11 -91 59 -91 86 0 9 -4 13 -8 10 -13 -8 -6 56 10 95 21 49
64 77 124 81 58 4 107 -22 125 -64z m-11774 -675 c2 3 21 -13 40 -34 65 -72
52 -178 -28 -221 -122 -65 -250 56 -195 185 7 18 25 41 39 50 36 23 98 36 120
25 10 -5 21 -7 24 -5z m104 0 c13 -16 12 -17 -3 -4 -10 7 -18 15 -18 17 0 8 8
3 21 -13z m12253 -53 c13 -16 25 -27 27 -25 2 2 4 -24 4 -58 1 -47 -4 -67 -17
-82 -10 -10 -16 -25 -13 -33 2 -7 0 -10 -5 -7 -6 3 -20 -1 -32 -9 -29 -20
-101 -20 -143 0 -40 19 -65 66 -65 124 0 60 26 99 85 125 46 21 52 21 92 8 24
-8 54 -28 67 -43z m-11839 40 c3 -6 -1 -7 -9 -4 -18 7 -21 14 -7 14 6 0 13 -4
16 -10z m11075 6 c0 -2 -7 -7 -16 -10 -8 -3 -12 -2 -9 4 6 10 25 14 25 6z
m-11513 -589 c0 -8 -6 -14 -14 -14 -9 0 -10 4 -2 14 6 7 12 13 14 13 1 0 2 -6
2 -13z m11942 0 c8 -10 7 -14 -2 -14 -8 0 -14 6 -14 14 0 7 1 13 2 13 2 0 8
-6 14 -13z m-12659 -191 c0 -2 -8 -10 -17 -17 -16 -13 -17 -12 -4 4 13 16 21
21 21 13z m238 -61 c31 -34 33 -40 30 -93 -2 -31 -6 -64 -9 -72 -10 -35 -59
-61 -119 -65 -38 -3 -55 2 -91 26 -24 16 -41 29 -37 29 4 0 0 16 -8 35 -18 43
-7 101 27 143 34 41 56 48 119 40 46 -6 61 -13 88 -43z m13189 -31 c17 -15 30
-31 27 -35 -2 -4 -1 -10 4 -13 4 -3 5 -30 2 -62 -5 -49 -12 -62 -43 -90 -32
-29 -44 -34 -88 -34 -59 0 -99 20 -124 62 -34 59 -14 161 38 190 72 40 123 35
184 -18z m-13417 -198 c0 -3 -4 -8 -10 -11 -5 -3 -10 -1 -10 4 0 6 5 11 10 11
6 0 10 -2 10 -4z m-619 -163 c13 -16 12 -17 -3 -4 -10 7 -18 15 -18 17 0 8 8
3 21 -13z m14599 13 c0 -2 -8 -10 -17 -17 -16 -13 -17 -12 -4 4 13 16 21 21
21 13z m-14134 -435 c43 -26 68 -82 61 -140 -10 -87 -119 -151 -188 -111 -72
43 -83 57 -83 118 0 70 6 102 16 96 4 -3 8 0 8 6 0 5 15 19 33 30 41 26 112
26 153 1z m13940 -29 c12 -6 25 -8 29 -4 3 4 6 3 4 -3 -1 -5 6 -28 15 -49 38
-85 -2 -174 -88 -197 -23 -6 -47 -16 -54 -21 -9 -8 -11 -7 -6 6 4 12 0 16 -15
16 -12 0 -37 15 -56 33 -67 62 -61 160 14 218 28 22 38 24 84 19 29 -3 62 -11
73 -18z m-14239 -882 c60 -36 80 -114 47 -183 -47 -98 -216 -93 -253 8 -25 71
-2 151 53 178 44 22 114 21 153 -3z m14467 -19 c-2 -2 10 -13 27 -23 16 -10
37 -34 45 -53 16 -39 15 -155 -1 -149 -5 2 -23 -8 -40 -23 -78 -72 -213 -15
-222 94 -8 91 57 158 154 158 23 0 39 -2 37 -4z m-15104 -345 c0 -2 -8 -10
-17 -17 -16 -13 -17 -12 -4 4 13 16 21 21 21 13z m15541 -13 c13 -16 12 -17
-3 -4 -10 7 -18 15 -18 17 0 8 8 3 21 -13z m-15821 -306 c0 -2 -10 -12 -22
-23 l-23 -19 19 23 c18 21 26 27 26 19z m16105 -17 c10 -11 16 -20 13 -20 -3
0 -13 9 -23 20 -10 11 -16 20 -13 20 3 0 13 -9 23 -20z m-15332 -202 c37 -14
101 -107 86 -124 -6 -7 -8 -18 -4 -24 3 -5 2 -10 -3 -10 -6 0 -13 -12 -17 -27
-7 -30 -23 -45 -76 -72 -42 -21 -54 -20 -112 8 -57 28 -79 66 -76 136 1 30 7
55 12 55 5 0 7 7 3 15 -3 8 -2 14 2 12 12 -3 52 29 45 37 -4 4 1 4 11 0 13 -5
17 -4 13 3 -8 13 75 6 116 -9z m14789 -24 c27 -8 67 -61 74 -100 4 -21 1 -53
-7 -77 -7 -23 -13 -45 -13 -49 -1 -5 -4 -8 -9 -8 -4 0 -20 -6 -37 -15 -34 -18
-109 -20 -143 -4 -55 25 -84 128 -53 187 36 70 97 91 188 66z m94 -931 c28
-18 60 -78 58 -108 -1 -11 -2 -30 -3 -42 -1 -12 -12 -35 -26 -51 -13 -16 -21
-33 -17 -38 4 -5 4 -6 -1 -3 -4 3 -28 1 -54 -6 -85 -22 -150 18 -177 108 -8
26 -10 44 -5 41 5 -3 9 5 9 18 0 29 35 71 80 96 39 21 90 15 136 -15z m-167
14 c-2 -1 -15 -11 -29 -22 l-25 -20 19 23 c11 12 24 22 29 22 6 0 8 -1 6 -3z
m-14801 -71 c38 -45 47 -73 38 -127 -5 -31 -4 -39 6 -33 8 4 10 3 5 -2 -5 -5
-12 -9 -15 -9 -4 0 -20 -13 -36 -28 -33 -31 -81 -42 -133 -31 -21 4 -42 6 -46
5 -5 -1 -6 3 -3 8 3 5 0 11 -7 14 -20 7 -47 70 -47 105 0 17 5 43 12 59 6 15
11 31 10 34 0 3 18 16 41 28 30 15 56 21 92 19 44 -3 54 -7 83 -42z m14864
-879 c9 -1 14 -5 12 -9 -5 -7 10 -12 29 -9 4 0 6 -2 5 -6 -3 -12 13 -53 20
-53 4 0 7 -23 7 -52 1 -48 -3 -56 -40 -95 -40 -41 -44 -43 -99 -43 -54 0 -61
3 -97 39 -38 38 -45 57 -39 121 6 70 80 127 150 114 19 -3 43 -6 52 -7z
m-14845 -50 c17 -9 33 -23 37 -32 3 -9 10 -14 15 -11 4 3 17 -4 27 -17 l19
-22 -24 20 c-22 18 -24 19 -18 2 4 -10 7 -32 7 -48 0 -17 4 -28 10 -24 5 3 -2
-16 -16 -43 -14 -26 -38 -56 -53 -65 -36 -21 -119 -22 -147 -2 -12 8 -24 12
-26 9 -3 -2 -11 3 -19 13 -11 14 -11 15 0 9 9 -6 8 -1 -3 17 -25 37 -27 96 -5
138 37 73 118 96 196 56z m-722 -377 c10 -11 16 -20 13 -20 -3 0 -13 9 -23 20
-10 11 -16 20 -13 20 3 0 13 -9 23 -20z m16135 17 c0 -2 -10 -12 -22 -23 l-23
-19 19 23 c18 21 26 27 26 19z m-15849 -344 c13 -16 12 -17 -3 -4 -10 7 -18
15 -18 17 0 8 8 3 21 -13z m15559 13 c0 -2 -8 -10 -17 -17 -16 -13 -17 -12 -4
4 13 16 21 21 21 13z m-15123 -201 c0 -8 -4 -12 -9 -9 -5 3 -6 10 -3 15 9 13
12 11 12 -6z m218 -16 c58 -40 71 -134 28 -195 -37 -51 -83 -61 -189 -43 -33
6 -78 115 -64 154 4 11 3 27 -3 35 -6 8 -7 12 -3 8 12 -10 37 12 29 25 -3 5
-1 7 5 3 6 -3 14 -1 18 5 12 21 69 39 107 35 21 -2 53 -15 72 -27z m14388 -15
c31 -22 62 -81 58 -108 -2 -12 1 -16 9 -11 7 4 4 -4 -5 -18 -9 -14 -15 -27
-14 -29 8 -9 -37 -58 -64 -71 -36 -17 -104 -28 -109 -18 -2 3 -16 14 -33 23
-87 49 -84 191 6 240 42 24 114 20 152 -8z m-14108 -826 c6 3 7 2 3 -2 -3 -4
7 -20 24 -35 26 -23 32 -37 36 -84 6 -73 -20 -119 -81 -141 -59 -21 -67 -22
-107 -4 -44 19 -66 44 -83 93 -13 37 -13 44 7 88 12 27 35 57 55 70 29 20 41
22 85 16 28 -3 56 -4 61 -1z m13808 -38 c10 0 34 -15 53 -34 18 -18 35 -32 37
-30 5 6 1 -117 -4 -137 -13 -45 -93 -80 -154 -67 -22 5 -48 10 -57 11 -9 1
-15 3 -13 5 2 2 -8 20 -21 39 -26 39 -32 99 -13 136 22 41 54 72 79 75 14 2
32 8 40 12 8 5 19 5 25 -1 5 -5 18 -9 28 -9z m-14253 -614 c0 -2 -8 -10 -17
-17 -16 -13 -17 -12 -4 4 13 16 21 21 21 13z m14581 -13 c13 -16 12 -17 -3 -4
-10 7 -18 15 -18 17 0 8 8 3 21 -13z m-13854 -207 c4 12 70 -3 111 -25 32 -17
55 -78 50 -133 -5 -48 -5 -48 16 -31 l21 18 -19 -23 c-11 -12 -21 -20 -23 -18
-2 2 -19 -12 -37 -30 -30 -30 -40 -34 -87 -34 -37 0 -65 7 -87 20 -18 11 -37
18 -42 15 -4 -3 -6 4 -3 15 3 11 1 20 -3 20 -15 0 -15 87 0 123 8 19 28 45 45
58 16 12 27 27 24 33 -4 6 2 4 12 -4 12 -10 19 -11 22 -4z m13123 -31 c19 -10
29 -11 40 -2 12 9 13 8 3 -2 -9 -11 -7 -20 9 -41 14 -20 20 -43 20 -80 0 -61
-20 -94 -76 -126 -61 -34 -145 -9 -185 56 -24 39 -14 130 17 163 12 13 19 27
15 32 -5 4 -2 5 4 1 7 -4 21 -2 30 3 26 15 94 13 123 -4z m-12533 -402 c0 -9
-4 -10 -14 -2 -7 6 -13 12 -13 14 0 1 6 2 13 2 8 0 14 -6 14 -14z m11953 12
c0 -2 -6 -8 -13 -14 -10 -8 -14 -7 -14 2 0 8 6 14 14 14 7 0 13 -1 13 -2z
m-11937 -368 c43 -28 62 -66 63 -125 0 -45 -4 -59 -25 -82 -14 -15 -36 -33
-49 -39 -30 -16 -93 -17 -120 -2 -12 7 -22 8 -22 4 0 -4 -14 12 -31 35 -28 39
-31 48 -27 99 4 49 10 61 41 89 19 18 33 34 31 36 -2 2 22 4 54 4 38 -1 67 -7
85 -19z m11914 7 c-3 -3 -12 -4 -19 -1 -8 3 -5 6 6 6 11 1 17 -2 13 -5z m154
-45 c34 -24 38 -31 47 -81 2 -15 8 -25 13 -22 5 3 9 0 9 -5 0 -6 -4 -11 -10
-11 -5 0 -10 -11 -10 -25 0 -13 -13 -40 -30 -58 -16 -19 -27 -36 -25 -39 3 -2
-29 -4 -71 -4 -74 1 -76 2 -110 38 -20 23 -34 48 -34 63 0 18 -4 24 -12 19
-10 -6 -10 -4 0 7 6 7 12 25 12 40 0 16 12 40 29 58 15 16 26 33 22 37 -3 4
-1 5 4 2 6 -3 19 -2 30 3 33 14 100 3 136 -22z m-11646 -189 c-3 -5 -12 -10
-18 -10 -7 0 -6 4 3 10 19 12 23 12 15 0z m11070 -8 c-3 -3 -11 0 -18 7 -9 10
-8 11 6 5 10 -3 15 -9 12 -12z m-10940 -526 c15 -10 34 -31 43 -47 10 -16 20
-29 23 -29 9 0 -8 -95 -20 -119 -23 -42 -67 -63 -128 -60 -60 3 -106 30 -119
71 -3 10 -9 16 -14 13 -5 -3 -12 0 -16 6 -4 8 -3 9 4 5 8 -5 12 5 12 34 0 43
18 88 44 109 9 7 13 17 10 22 -3 5 1 6 9 3 8 -3 18 -1 21 5 10 15 101 7 131
-13z m10941 2 c91 -33 98 -192 12 -243 -34 -20 -121 -38 -112 -23 3 4 -1 8 -9
8 -8 0 -26 9 -39 20 -14 10 -28 17 -32 15 -3 -3 -4 -2 -1 1 2 4 -3 20 -12 37
-10 20 -14 45 -10 73 3 31 1 42 -7 38 -6 -4 1 6 17 20 15 15 24 32 21 38 -4 7
-2 8 4 4 7 -4 22 0 34 8 27 19 89 21 134 4z m-10063 -483 c-3 -9 -8 -14 -10
-11 -3 3 -2 9 2 15 9 16 15 13 8 -4z m9045 -10 c-3 -3 -9 2 -12 12 -6 14 -5
15 5 6 7 -7 10 -15 7 -18z m339 -170 c13 -9 29 -27 35 -41 6 -13 14 -24 18
-24 7 0 -4 -92 -15 -128 -8 -25 -83 -64 -122 -64 -14 0 -20 -5 -16 -12 3 -6
-3 -3 -14 7 -11 9 -24 17 -30 17 -20 0 -72 69 -78 104 -13 69 40 155 101 163
16 3 30 6 32 8 6 6 63 -14 89 -30z m-9570 5 c52 -31 66 -61 59 -127 -7 -79 -8
-83 -18 -83 -5 0 -6 -5 -2 -12 4 -6 3 -8 -3 -5 -6 4 -16 0 -23 -8 -7 -8 -20
-15 -29 -15 -10 0 -25 -6 -35 -13 -15 -11 -25 -10 -64 9 -26 12 -50 20 -55 17
-4 -2 -6 -1 -5 4 1 4 -6 21 -17 36 -22 34 -26 68 -13 122 19 82 129 122 205
75z m780 -267 c0 -9 -4 -10 -14 -2 -7 6 -13 12 -13 14 0 1 6 2 13 2 8 0 14 -6
14 -14z m7873 12 c0 -2 -6 -8 -13 -14 -10 -8 -14 -7 -14 2 0 8 6 14 14 14 7 0
13 -1 13 -2z m52 -225 c67 0 134 -85 123 -155 -4 -22 -7 -48 -8 -57 -1 -9 -4
-15 -8 -12 -4 2 -13 -3 -20 -12 -35 -43 -103 -55 -164 -30 -100 42 -100 210 1
252 31 13 34 17 22 32 -11 15 -10 15 8 0 11 -10 32 -18 46 -18z m139 3 c13
-16 12 -17 -3 -4 -10 7 -18 15 -18 17 0 8 8 3 21 -13z m-8069 -29 c38 -20 58
-63 58 -125 0 -47 -4 -55 -40 -91 -39 -40 -40 -40 -102 -34 -78 6 -89 8 -84
14 3 2 -4 13 -14 24 -21 23 -52 108 -39 108 5 0 9 8 9 18 0 32 38 80 74 93 20
7 36 16 36 20 0 9 66 -8 102 -27z m795 -379 c0 -8 -4 -12 -9 -9 -5 3 -6 10 -3
15 9 13 12 11 12 -6z m5 -28 c25 -5 57 -50 72 -99 10 -37 9 -48 -6 -79 -9 -20
-31 -48 -47 -62 -16 -14 -28 -27 -26 -29 2 -2 -23 -1 -55 2 -95 9 -147 62
-141 145 4 63 40 115 88 128 17 5 77 2 115 -6z m6387 -41 c15 -8 36 -27 45
-41 18 -28 38 -115 26 -115 -4 0 -10 -10 -14 -23 -3 -12 -19 -36 -35 -51 -26
-25 -38 -29 -91 -30 -56 -1 -62 1 -97 37 -36 35 -38 41 -38 101 0 55 4 68 25
91 14 15 34 31 45 35 32 14 104 11 134 -4z m-907 -316 c21 0 68 -63 73 -99 4
-20 8 -44 10 -54 2 -9 -1 -15 -6 -11 -5 3 -9 -2 -9 -11 0 -22 -63 -85 -85 -85
-9 0 -14 -4 -11 -9 3 -5 -15 -5 -40 0 -26 5 -51 6 -57 2 -6 -3 -7 -1 -3 5 7
11 -7 17 -29 12 -5 -1 -7 1 -3 5 4 4 -4 19 -17 33 -13 14 -22 29 -19 34 3 4 2
8 -3 8 -14 0 -7 74 11 108 9 17 28 40 43 49 28 19 126 34 131 21 2 -5 9 -8 14
-8z m-4560 -50 c51 -56 49 -127 -6 -187 -27 -30 -41 -36 -84 -41 -34 -3 -50
-8 -46 -16 3 -6 0 -4 -8 4 -7 8 -26 23 -41 33 -15 10 -33 29 -39 42 -6 14 -14
23 -17 21 -10 -7 -7 98 4 112 33 44 68 76 85 77 11 1 23 4 26 8 13 12 100 -24
126 -53z m835 -158 c27 -8 51 -24 66 -45 25 -33 51 -117 37 -117 -4 0 -11 -11
-14 -24 -3 -13 -22 -38 -42 -56 -35 -30 -41 -32 -96 -28 -46 3 -64 10 -86 31
-16 15 -30 25 -33 23 -3 -3 -6 25 -7 62 -3 57 1 73 20 102 14 21 38 40 58 46
19 6 36 17 38 24 3 7 7 8 11 3 3 -5 25 -15 48 -21z m2723 -25 c0 12 109 0 137
-15 27 -15 63 -81 63 -114 0 -13 -10 -43 -22 -68 -12 -25 -20 -49 -19 -53 1
-5 -2 -6 -7 -3 -5 3 -28 -2 -51 -10 -53 -18 -98 -8 -144 33 -29 25 -36 45 -39
103 -2 33 7 55 33 84 19 22 28 40 23 48 -6 9 -3 9 9 -1 9 -7 17 -9 17 -4z
m-3786 -5 c3 -5 -1 -9 -9 -9 -8 0 -12 4 -9 9 3 4 7 8 9 8 2 0 6 -4 9 -8z
m4011 -51 c3 -5 2 -12 -3 -15 -5 -3 -9 1 -9 9 0 17 3 19 12 6z m-1997 -70 c12
0 39 -16 58 -34 31 -28 37 -42 41 -84 9 -94 -43 -155 -133 -155 -57 0 -103 27
-130 78 -20 36 -21 43 -9 89 8 31 24 58 42 74 15 14 27 27 26 30 -1 5 45 6
105 2z m1004 -25 c6 4 8 3 5 -3 -4 -6 1 -17 10 -24 19 -17 43 -70 43 -99 0
-11 -7 -37 -17 -58 -9 -20 -15 -41 -14 -45 1 -5 -3 -6 -8 -3 -5 4 -13 0 -18
-8 -4 -7 -29 -18 -55 -23 -38 -9 -54 -7 -86 7 -41 18 -82 66 -82 95 0 10 -5
14 -12 9 -10 -6 -10 -4 0 7 6 7 12 24 12 36 0 28 22 74 45 93 9 7 37 19 63 25
39 10 52 10 75 -2 15 -7 33 -11 39 -7z m1008 20 c0 -2 -8 -10 -17 -17 -16 -13
-17 -12 -4 4 13 16 21 21 21 13z m-2525 -556 c10 -11 16 -20 13 -20 -3 0 -13
9 -23 20 -10 11 -16 20 -13 20 3 0 13 -9 23 -20z m1895 17 c0 -2 -10 -12 -22
-23 l-23 -19 19 23 c18 21 26 27 26 19z m-2756 -23 c3 -8 2 -12 -4 -9 -6 3
-10 10 -10 16 0 14 7 11 14 -7z m3597 -7 c-10 -9 -11 -8 -5 6 3 10 9 15 12 12
3 -3 0 -11 -7 -18z m-2147 -266 c3 -5 -2 -8 -12 -7 -11 1 -16 -6 -15 -18 1
-13 -2 -15 -10 -7 -7 7 -6 15 3 26 14 17 26 19 34 6z m726 -6 c9 -11 10 -19 3
-26 -8 -8 -11 -6 -10 7 1 12 -4 19 -15 18 -10 -1 -15 2 -12 7 8 13 20 11 34
-6z"/>
<path d="M9640 16110 c-176 -12 -270 -21 -385 -36 -60 -8 -136 -17 -167 -21
-32 -3 -55 -10 -52 -14 3 -5 -2 -6 -10 -3 -25 10 -453 -75 -441 -88 3 -3 -4
-6 -17 -6 -34 0 -61 -6 -193 -41 -66 -18 -125 -37 -131 -42 -6 -5 -13 -7 -16
-4 -10 10 -501 -163 -494 -174 2 -3 -7 -7 -21 -8 -14 0 -28 -5 -32 -10 -3 -4
-14 -9 -23 -11 -22 -4 -194 -80 -355 -157 -72 -35 -120 -63 -116 -69 3 -6 3
-8 -2 -4 -9 9 -247 -115 -286 -148 -8 -8 -19 -14 -22 -14 -14 0 -97 -56 -92
-62 4 -3 -2 -5 -12 -4 -10 0 -17 -5 -15 -12 1 -8 -2 -11 -7 -7 -14 8 -134 -69
-124 -79 5 -4 4 -7 -2 -6 -19 4 -31 0 -51 -18 -10 -9 -45 -34 -76 -55 -31 -20
-65 -45 -74 -55 -10 -9 -22 -17 -27 -17 -5 0 -15 -9 -23 -19 -8 -11 -14 -16
-14 -10 0 5 -6 2 -13 -6 -7 -8 -21 -20 -32 -27 -11 -6 -19 -16 -17 -23 1 -6
-3 -8 -9 -4 -7 4 -17 1 -23 -7 -6 -8 -30 -27 -54 -43 -24 -17 -49 -37 -55 -46
-7 -8 -25 -23 -40 -33 -73 -47 -378 -327 -370 -340 3 -6 2 -7 -4 -4 -13 8 -56
-37 -46 -48 5 -4 3 -5 -3 -2 -14 8 -37 -17 -26 -28 4 -5 2 -5 -4 -2 -14 8 -57
-36 -47 -48 5 -4 3 -5 -3 -2 -14 8 -293 -295 -341 -370 -10 -15 -25 -33 -33
-40 -9 -6 -29 -31 -46 -55 -16 -24 -35 -48 -43 -54 -8 -6 -11 -16 -7 -23 4 -6
2 -10 -4 -9 -7 2 -17 -6 -23 -17 -7 -11 -19 -25 -27 -32 -8 -7 -11 -13 -5 -13
5 0 -1 -7 -13 -16 -12 -8 -20 -19 -17 -24 3 -5 -1 -12 -8 -17 -8 -4 -31 -32
-51 -62 -21 -29 -32 -50 -24 -46 7 5 10 5 6 0 -4 -4 -2 -15 5 -24 11 -14 10
-14 -5 -3 -15 12 -20 12 -32 -1 -31 -30 -127 -187 -121 -197 4 -6 1 -9 -7 -8
-7 2 -12 -5 -11 -15 0 -10 -2 -16 -5 -12 -6 5 -62 -78 -62 -92 0 -3 -6 -14
-14 -22 -33 -39 -157 -277 -148 -286 4 -5 2 -5 -4 -2 -13 8 -157 -290 -147
-306 3 -7 2 -9 -2 -4 -11 9 -106 -213 -100 -231 3 -7 1 -11 -4 -8 -11 7 -184
-468 -179 -493 1 -3 -4 -19 -11 -36 -7 -16 -13 -42 -13 -57 -1 -16 -4 -28 -8
-28 -9 0 -48 -160 -53 -217 -1 -12 -4 -19 -7 -17 -12 12 -95 -419 -85 -444 3
-9 2 -13 -2 -8 -8 8 -23 -87 -47 -309 -48 -434 -48 -876 0 -1310 24 -222 39
-317 47 -309 4 5 5 1 2 -8 -10 -25 73 -456 85 -444 3 2 6 -5 6 -17 3 -40 13
-81 53 -227 63 -226 197 -614 210 -606 3 2 7 -7 8 -21 0 -14 5 -28 10 -32 4
-3 9 -13 11 -22 5 -35 69 -169 77 -161 4 4 5 2 2 -5 -10 -16 134 -314 147
-306 6 3 8 3 4 -2 -9 -9 115 -247 148 -286 8 -8 14 -19 14 -22 0 -14 56 -97
62 -92 3 4 5 -2 5 -12 -1 -10 4 -17 11 -15 8 1 11 -2 7 -8 -6 -10 90 -167 121
-197 12 -13 17 -13 32 -1 15 11 16 11 5 -3 -7 -9 -9 -20 -5 -24 4 -5 1 -5 -6
0 -8 4 3 -17 24 -46 20 -30 43 -58 51 -62 7 -5 11 -12 8 -17 -3 -5 5 -16 17
-24 12 -9 18 -16 13 -16 -6 0 -3 -6 5 -13 8 -7 20 -21 27 -32 6 -11 16 -19 23
-17 6 1 8 -3 4 -9 -4 -7 -1 -17 7 -23 8 -6 27 -30 43 -54 17 -24 37 -49 46
-55 8 -7 23 -25 33 -40 47 -73 327 -378 340 -370 6 3 7 2 4 -4 -7 -11 36 -56
46 -48 4 3 5 2 2 -2 -8 -10 16 -33 28 -26 5 3 7 2 4 -4 -8 -13 37 -56 48 -46
4 5 5 3 2 -3 -8 -14 295 -293 370 -341 15 -10 33 -25 40 -33 6 -9 31 -29 55
-46 24 -16 48 -35 54 -43 6 -8 16 -11 23 -7 6 4 10 2 9 -4 -2 -7 6 -17 17 -23
11 -7 25 -19 32 -27 7 -8 13 -11 13 -6 0 6 6 1 14 -10 8 -10 18 -19 23 -19 5
0 17 -8 27 -17 9 -10 43 -35 74 -55 31 -21 66 -46 76 -55 20 -18 32 -22 51
-18 6 1 7 -2 2 -6 -10 -10 110 -87 124 -79 5 4 8 1 7 -7 -2 -7 5 -12 15 -11
10 0 16 -2 12 -5 -5 -6 78 -62 92 -62 3 0 14 -6 22 -14 39 -33 277 -157 286
-148 5 4 5 2 2 -4 -4 -6 44 -34 116 -69 161 -77 333 -153 355 -157 9 -2 20 -7
23 -11 4 -5 18 -10 32 -10 14 -1 23 -5 21 -8 -3 -6 256 -105 294 -113 9 -1 29
-8 44 -14 49 -20 226 -73 250 -75 13 0 25 -4 28 -7 10 -12 180 -51 191 -44 8
5 9 3 4 -6 -6 -10 -1 -11 21 -6 16 4 25 4 21 -1 -15 -14 412 -99 441 -88 9 3
13 2 8 -2 -8 -8 87 -23 309 -47 434 -48 876 -48 1310 0 222 24 317 39 309 47
-5 4 -1 5 8 2 29 -11 456 74 441 88 -4 5 5 5 21 1 22 -5 27 -4 21 6 -5 9 -4
11 4 6 11 -7 181 32 191 44 3 3 16 7 29 7 31 2 253 72 269 85 6 6 12 8 12 5 0
-11 348 117 360 132 3 3 13 7 22 9 22 4 194 80 355 157 72 35 120 63 116 69
-3 6 -3 8 2 4 10 -9 247 114 286 148 8 8 19 14 22 14 14 0 97 56 92 62 -4 3 2
5 12 5 10 -1 17 4 15 11 -1 8 2 11 7 7 14 -8 134 69 124 79 -5 4 -3 7 2 6 19
-4 31 0 51 18 10 9 45 35 78 56 32 21 66 47 74 57 9 10 18 16 22 14 4 -2 20 8
37 23 17 15 39 32 49 39 11 6 18 16 16 23 -1 6 3 8 9 4 7 -4 17 -1 23 7 6 8
30 27 54 43 24 17 49 37 55 46 7 8 25 23 40 33 73 47 378 327 370 340 -3 6 -2
7 4 4 13 -8 56 37 46 48 -5 4 -3 5 3 2 14 -8 37 17 26 28 -4 5 -2 5 4 2 14 -8
57 36 47 48 -5 4 -3 6 3 2 14 -8 293 296 341 371 10 15 25 32 33 39 9 6 29 31
46 54 16 24 37 52 47 62 10 10 15 23 11 29 -4 7 -3 8 5 4 6 -4 14 0 18 11 4
10 14 23 22 30 9 7 12 13 6 13 -5 0 1 7 13 16 12 8 20 19 17 24 -3 5 1 12 8
17 8 4 31 32 51 62 21 29 32 50 24 46 -7 -5 -10 -5 -6 0 4 4 2 15 -5 24 -11
14 -10 14 5 3 15 -12 20 -12 32 1 31 30 127 187 121 197 -4 6 -1 9 7 8 7 -2
12 5 11 15 0 10 2 16 5 12 6 -5 62 78 62 92 0 3 6 14 14 22 34 39 157 276 148
286 -4 5 -2 5 4 2 6 -4 34 44 69 116 77 161 153 333 157 355 2 9 7 20 11 23 5
4 10 18 10 32 1 14 5 23 8 21 14 -8 199 535 201 589 1 15 4 27 8 27 6 0 44
138 46 170 1 8 4 23 8 32 4 9 4 23 0 30 -4 8 -3 10 2 5 15 -14 101 411 89 441
-3 9 -2 13 2 8 8 -8 23 87 47 309 48 434 48 876 0 1310 -24 222 -39 317 -47
309 -4 -5 -5 -1 -2 8 10 26 -74 456 -86 443 -4 -3 -4 6 -1 21 4 20 2 25 -8 19
-9 -5 -11 -4 -6 4 7 11 -32 181 -44 191 -3 3 -7 17 -8 31 -4 56 -188 593 -201
585 -3 -2 -7 7 -8 21 0 14 -5 28 -10 32 -4 3 -9 13 -11 22 -5 35 -69 169 -77
161 -4 -4 -5 -2 -2 5 10 16 -134 314 -147 306 -6 -3 -8 -3 -4 2 9 9 -115 247
-148 286 -8 8 -14 19 -14 22 0 14 -56 97 -62 92 -3 -4 -5 2 -5 12 1 10 -4 17
-11 15 -8 -1 -11 2 -7 8 6 10 -90 167 -121 197 -12 13 -17 13 -32 1 -15 -11
-16 -11 -5 3 7 9 9 20 5 24 -4 5 -1 5 6 0 8 -4 -3 17 -24 46 -20 30 -43 58
-51 62 -7 5 -11 12 -8 17 3 5 -5 16 -17 24 -12 9 -18 16 -13 16 6 0 3 6 -5 13
-8 7 -20 21 -27 32 -6 11 -16 19 -23 17 -6 -1 -8 3 -4 9 4 7 1 17 -7 23 -8 6
-27 30 -43 54 -17 24 -37 49 -46 55 -8 7 -23 25 -33 40 -47 73 -327 378 -340
370 -6 -3 -7 -2 -4 4 8 13 -37 55 -49 46 -5 -5 -6 -4 -2 1 10 12 -11 38 -25
29 -5 -3 -7 -2 -4 4 8 13 -37 56 -48 46 -4 -5 -5 -3 -2 3 8 14 -295 293 -370
341 -15 10 -33 25 -40 33 -6 9 -31 29 -55 46 -24 16 -48 35 -54 43 -6 8 -16
11 -23 7 -6 -4 -10 -2 -9 4 2 7 -6 17 -17 23 -11 7 -25 19 -32 27 -7 8 -13 11
-13 6 0 -6 -6 -1 -14 10 -8 10 -18 19 -23 19 -5 0 -17 8 -27 17 -9 10 -43 35
-74 55 -31 21 -66 46 -76 55 -20 18 -32 22 -51 18 -5 -1 -7 2 -2 6 10 10 -110
87 -124 79 -5 -4 -8 -1 -7 7 2 7 -5 12 -15 12 -10 -1 -16 1 -12 4 5 6 -78 62
-92 62 -3 0 -14 6 -22 14 -39 33 -277 157 -286 148 -5 -4 -5 -2 -2 4 6 10
-168 99 -338 171 -44 19 -100 44 -125 55 -25 11 -55 21 -67 22 -11 0 -19 4
-17 7 5 9 -474 181 -495 177 -3 -1 -19 4 -36 11 -16 7 -42 13 -57 13 -16 1
-28 4 -28 8 0 10 -171 51 -218 52 -13 0 -20 3 -17 6 13 13 -416 98 -443 87 -9
-3 -13 -2 -8 2 13 14 -336 55 -609 73 -176 11 -551 11 -715 0z m785 -115 c75
-7 280 -27 320 -30 39 -4 165 -22 215 -31 14 -3 72 -13 130 -24 133 -23 258
-51 434 -97 77 -19 146 -37 155 -38 9 -2 16 -4 16 -4 0 -2 442 -152 455 -155
8 -1 24 -7 36 -14 12 -6 43 -20 71 -31 77 -30 305 -130 336 -147 15 -8 32 -12
39 -8 7 4 8 3 4 -4 -4 -7 -3 -12 1 -12 8 0 201 -100 310 -161 158 -88 382
-232 546 -349 54 -38 101 -70 105 -70 4 0 15 -8 24 -19 9 -10 42 -38 74 -62
33 -24 61 -47 62 -51 2 -5 8 -8 14 -8 6 0 19 -12 30 -26 11 -14 27 -23 34 -20
8 3 13 0 11 -7 -1 -7 5 -11 14 -11 9 1 16 -6 15 -15 0 -9 5 -15 12 -14 6 2 12
-1 12 -6 0 -4 52 -55 116 -112 147 -133 320 -306 453 -453 57 -64 108 -116
112 -116 5 0 8 -6 6 -12 -1 -7 5 -12 14 -12 9 1 16 -6 15 -15 0 -9 4 -15 11
-14 7 2 10 -3 7 -11 -3 -7 6 -23 20 -34 14 -11 26 -24 26 -30 0 -6 3 -12 8
-14 4 -1 27 -29 51 -62 24 -32 52 -65 62 -74 11 -9 19 -20 19 -24 0 -4 33 -52
73 -108 119 -168 246 -367 346 -543 55 -98 161 -302 161 -310 0 -4 5 -5 12 -1
7 4 8 3 4 -5 -4 -6 3 -28 15 -48 13 -20 24 -44 25 -52 2 -16 93 -230 136 -321
12 -25 21 -51 19 -57 -1 -7 3 -13 9 -13 5 0 9 -3 8 -7 -2 -6 113 -364 139
-433 3 -8 8 -23 9 -32 2 -9 19 -77 38 -150 65 -248 139 -632 151 -783 3 -33
10 -98 15 -145 33 -283 33 -897 0 -1180 -5 -47 -12 -111 -15 -144 -12 -155
-90 -557 -155 -803 -17 -61 -32 -120 -33 -130 -2 -10 -7 -25 -10 -33 -26 -69
-141 -427 -139 -432 1 -5 -3 -8 -8 -8 -6 0 -10 -6 -9 -12 2 -7 -7 -33 -19 -58
-43 -91 -134 -305 -136 -321 -1 -8 -12 -32 -25 -52 -12 -20 -19 -42 -15 -49 4
-7 3 -10 -1 -5 -5 4 -30 -35 -56 -86 -39 -78 -97 -186 -139 -257 -5 -8 -31
-53 -59 -100 -59 -101 -177 -281 -243 -374 -27 -37 -48 -69 -48 -72 0 -3 -11
-17 -25 -32 -14 -15 -25 -31 -25 -37 0 -6 -8 -18 -19 -27 -10 -9 -38 -42 -62
-74 -24 -33 -47 -60 -51 -62 -5 -2 -8 -8 -8 -14 0 -6 -12 -19 -26 -30 -14 -11
-23 -27 -20 -34 3 -8 0 -13 -7 -11 -7 1 -11 -5 -11 -14 1 -9 -6 -16 -15 -15
-9 0 -15 -5 -13 -11 1 -7 -2 -13 -7 -13 -4 0 -55 -52 -112 -116 -133 -147
-306 -320 -453 -453 -107 -96 -121 -112 -117 -134 1 -5 -3 -6 -9 -2 -6 3 -7
12 -3 18 4 6 -16 -8 -45 -32 -29 -24 -52 -48 -52 -53 0 -4 -6 -8 -14 -8 -8 0
-16 -3 -18 -7 -1 -5 -29 -28 -62 -52 -32 -24 -65 -52 -74 -62 -9 -11 -20 -19
-24 -19 -4 0 -51 -32 -105 -70 -164 -117 -388 -261 -546 -349 -109 -61 -302
-161 -310 -161 -4 0 -5 -5 -1 -12 4 -7 3 -8 -4 -4 -7 4 -24 0 -39 -8 -31 -17
-259 -117 -336 -147 -28 -11 -59 -25 -71 -31 -12 -7 -28 -13 -36 -14 -13 -3
-455 -153 -455 -155 0 0 -7 -2 -16 -4 -9 -1 -78 -19 -155 -38 -176 -46 -301
-74 -434 -97 -58 -11 -116 -21 -130 -24 -58 -11 -179 -28 -230 -32 -30 -3 -95
-9 -145 -14 -146 -16 -355 -25 -585 -25 -230 0 -439 9 -585 25 -49 5 -115 11
-145 14 -51 4 -172 21 -230 32 -14 3 -72 13 -130 24 -133 23 -258 51 -434 97
-77 19 -146 37 -155 38 -9 2 -16 4 -16 4 0 2 -442 152 -455 155 -8 1 -24 7
-36 14 -12 6 -43 20 -71 31 -77 30 -305 130 -336 147 -15 8 -32 12 -39 8 -7
-4 -8 -3 -4 4 4 7 3 12 -1 12 -8 0 -201 100 -310 161 -158 88 -382 232 -546
349 -54 38 -101 70 -105 70 -4 0 -15 8 -24 19 -9 10 -42 38 -74 62 -33 24 -60
47 -62 52 -2 4 -8 7 -14 7 -6 0 -19 12 -30 26 -11 14 -27 23 -34 20 -8 -3 -13
0 -11 7 1 7 -5 11 -14 11 -9 -1 -16 6 -15 15 0 9 -5 15 -11 13 -7 -1 -13 2
-13 7 0 4 -52 55 -116 112 -147 133 -320 306 -453 453 -57 64 -108 116 -112
116 -5 0 -8 6 -7 13 2 6 -4 11 -13 11 -9 -1 -16 6 -15 15 0 9 -4 15 -11 14 -7
-2 -10 3 -7 11 3 7 -6 23 -20 34 -14 11 -26 24 -26 30 0 6 -3 12 -7 14 -5 2
-28 29 -52 62 -24 32 -52 65 -62 74 -11 9 -19 20 -19 24 0 4 -33 52 -73 108
-119 168 -246 367 -346 543 -55 98 -161 302 -161 310 0 4 -5 5 -12 1 -7 -4 -8
-3 -4 5 4 6 -3 28 -15 48 -13 20 -24 44 -25 52 -2 16 -93 230 -136 321 -12 25
-21 51 -19 58 1 6 -3 12 -9 12 -5 0 -9 3 -8 8 2 5 -113 363 -139 432 -3 8 -8
23 -9 32 -2 9 -19 77 -38 150 -65 248 -139 632 -151 783 -3 33 -10 98 -15 145
-33 283 -33 897 0 1180 5 47 12 111 15 144 12 155 90 557 155 803 17 61 32
120 33 130 2 10 7 25 10 33 26 69 141 427 139 433 -1 4 3 7 8 7 6 0 10 6 9 13
-2 6 6 30 16 52 10 22 22 49 26 60 5 11 33 76 63 144 31 68 53 128 50 132 -2
4 0 10 6 14 5 3 40 65 76 138 56 111 113 218 154 287 5 8 31 53 59 100 67 114
180 286 269 410 39 56 72 104 72 108 0 4 8 15 19 24 10 9 38 42 62 74 24 33
47 61 52 62 4 2 7 8 7 14 0 6 12 19 26 30 14 11 23 27 20 34 -3 8 0 13 7 11 7
-1 11 5 11 14 -1 9 4 16 10 15 6 0 12 2 14 6 2 4 21 25 43 47 25 24 38 45 33
52 -4 7 -3 9 3 6 5 -3 32 16 58 43 27 28 47 50 43 50 -8 0 266 271 356 353 42
38 73 73 70 79 -4 7 -2 8 5 4 7 -5 27 8 50 31 21 21 42 39 47 41 5 2 8 9 8 16
-1 7 6 13 15 12 9 0 15 4 14 11 -2 7 3 10 11 7 7 -3 23 6 34 20 11 14 24 26
30 26 6 0 12 3 14 8 2 4 29 27 62 51 32 24 65 52 74 62 9 11 20 19 24 19 5 0
57 35 116 78 339 245 741 469 1157 644 66 28 129 55 140 61 11 6 27 12 35 13
13 3 455 153 455 155 0 0 7 2 16 4 9 1 78 19 155 38 176 46 301 74 434 97 58
11 116 21 130 24 58 11 179 28 230 32 30 3 96 9 145 14 50 6 153 13 230 16 77
4 142 9 145 12 5 5 566 -6 635 -13z m-3400 -695 c-3 -5 -12 -10 -18 -10 -7 0
-6 4 3 10 19 12 23 12 15 0z m5970 -8 c-3 -3 -11 0 -18 7 -9 10 -8 11 6 5 10
-3 15 -9 12 -12z m430 -262 c-3 -5 -12 -10 -18 -10 -7 0 -6 4 3 10 19 12 23
12 15 0z m1608 -1615 c-3 -9 -8 -14 -10 -11 -3 3 -2 9 2 15 9 16 15 13 8 -4z
m-10332 -438 c-10 -9 -11 -8 -5 6 3 10 9 15 12 12 3 -3 0 -11 -7 -18z m10603
7 c3 -8 2 -12 -4 -9 -6 3 -10 10 -10 16 0 14 7 11 14 -7z m-10596 -5979 c-3
-3 -9 2 -12 12 -6 14 -5 15 5 6 7 -7 10 -15 7 -18z m10595 10 c-3 -9 -8 -14
-10 -11 -3 3 -2 9 2 15 9 16 15 13 8 -4z m-269 -431 c3 -8 2 -12 -4 -9 -6 3
-10 10 -10 16 0 14 7 11 14 -7z m-8434 -1608 c0 -2 -7 -7 -16 -10 -8 -3 -12
-2 -9 4 6 10 25 14 25 6z m6825 -6 c3 -6 -1 -7 -9 -4 -18 7 -21 14 -7 14 6 0
13 -4 16 -10z m-6400 -270 c3 -6 -1 -7 -9 -4 -18 7 -21 14 -7 14 6 0 13 -4 16
-10z m5975 6 c0 -2 -7 -7 -16 -10 -8 -3 -12 -2 -9 4 6 10 25 14 25 6z"/>
<path d="M9669 15680 c-250 -16 -670 -70 -694 -90 -6 -5 -14 -7 -18 -4 -11 12
-430 -83 -422 -96 3 -4 -3 -6 -13 -4 -36 10 -700 -214 -721 -243 -3 -4 -14 -9
-23 -11 -43 -7 -336 -146 -350 -167 -4 -5 -8 -7 -8 -2 0 12 -120 -52 -120 -65
0 -6 -3 -9 -6 -5 -8 8 -42 -10 -186 -96 -65 -39 -118 -75 -118 -79 0 -5 -3 -7
-7 -5 -12 8 -214 -129 -206 -138 5 -4 3 -6 -2 -2 -12 6 -264 -173 -277 -198
-5 -8 -14 -15 -21 -15 -7 0 -34 -20 -60 -43 -26 -24 -47 -42 -47 -40 0 8 -209
-179 -239 -213 -16 -18 -31 -31 -33 -29 -2 3 -58 -50 -123 -115 -66 -66 -116
-120 -112 -120 4 0 -8 -13 -26 -30 -35 -30 -222 -240 -214 -240 2 0 -16 -21
-40 -47 -23 -26 -43 -53 -43 -61 0 -7 -6 -15 -14 -18 -17 -7 -77 -89 -71 -98
3 -3 2 -4 -2 -1 -12 9 -276 -373 -267 -387 3 -4 1 -8 -4 -8 -4 0 -40 -53 -79
-117 -86 -145 -104 -179 -96 -187 4 -3 1 -6 -5 -6 -13 0 -77 -120 -65 -120 5
0 3 -4 -2 -8 -14 -10 -65 -108 -115 -222 -23 -52 -50 -113 -60 -135 -81 -178
-258 -710 -246 -740 3 -9 2 -14 -3 -10 -13 8 -109 -410 -97 -422 3 -4 1 -12
-4 -18 -25 -30 -77 -476 -92 -782 -9 -186 -9 -300 0 -485 15 -314 67 -753 92
-783 6 -7 7 -14 4 -18 -12 -12 84 -430 97 -422 5 4 6 -1 3 -10 -12 -30 165
-562 246 -740 10 -22 37 -83 60 -135 50 -114 101 -212 115 -222 5 -4 7 -8 2
-8 -12 0 52 -120 65 -120 6 0 9 -3 5 -6 -3 -4 2 -23 13 -44 33 -64 150 -254
161 -261 6 -3 10 -10 10 -15 -3 -23 292 -446 330 -473 10 -7 19 -19 19 -26 0
-6 23 -35 50 -64 28 -29 44 -49 38 -45 -19 12 169 -202 208 -235 18 -16 31
-31 29 -33 -3 -2 50 -58 115 -123 66 -66 120 -116 120 -112 0 4 13 -8 30 -26
34 -39 248 -229 236 -209 -4 6 16 -10 45 -38 29 -27 58 -50 64 -50 7 0 19 -9
26 -19 27 -38 450 -333 473 -330 5 0 12 -4 15 -10 7 -11 197 -128 261 -161 21
-11 40 -16 44 -13 3 4 6 1 6 -5 0 -13 120 -77 120 -65 0 5 4 3 8 -2 14 -21
307 -160 350 -167 9 -2 20 -7 23 -11 21 -29 685 -253 721 -243 10 2 16 0 13
-4 -7 -11 395 -105 421 -99 5 1 16 -1 24 -4 16 -6 115 -25 140 -26 8 -1 77
-10 154 -20 261 -37 398 -45 726 -45 328 0 465 8 726 45 77 10 146 19 154 20
47 3 141 22 145 30 3 4 11 6 18 3 24 -9 430 83 422 96 -3 4 3 6 13 4 36 -10
700 214 721 243 3 4 14 9 23 11 43 7 336 146 350 167 4 5 8 7 8 2 0 -12 120
52 120 65 0 6 3 9 6 5 4 -3 23 2 44 13 64 33 254 150 261 161 3 6 9 9 12 7 14
-9 449 295 476 333 7 10 19 19 26 19 6 0 35 23 64 50 29 28 49 44 45 38 -4 -7
11 3 32 22 21 19 53 47 69 61 17 14 60 55 98 91 37 35 67 62 67 59 0 -3 54 48
120 114 65 65 118 120 116 122 -1 2 27 33 62 70 36 38 77 82 91 98 14 17 42
48 61 69 19 21 29 36 22 32 -6 -4 10 16 38 45 27 29 50 58 50 64 0 7 9 19 19
26 35 25 294 392 294 416 0 7 3 10 7 8 7 -4 27 31 28 49 0 5 5 12 11 15 11 7
128 197 161 261 11 21 16 40 13 44 -4 3 -1 6 5 6 13 0 77 120 65 120 -5 0 -3
4 2 8 14 10 65 108 115 222 23 52 50 113 60 135 81 178 258 710 246 740 -3 9
-2 14 3 10 11 -6 106 394 100 421 -1 5 1 16 4 24 6 16 25 115 26 140 1 8 10
77 20 154 37 261 45 398 45 726 0 328 -8 465 -45 726 -10 77 -19 146 -20 154
-3 47 -22 141 -30 145 -4 3 -6 11 -3 18 9 25 -83 430 -97 422 -5 -4 -6 1 -3
10 12 30 -165 562 -246 740 -10 22 -37 83 -60 135 -50 114 -101 212 -115 222
-5 4 -7 8 -2 8 12 0 -52 120 -65 120 -6 0 -9 3 -5 6 3 4 -2 23 -13 44 -33 64
-150 254 -161 261 -6 3 -9 9 -7 12 9 14 -295 449 -333 476 -10 7 -19 19 -19
26 0 6 -23 35 -50 64 -28 29 -44 49 -38 45 7 -4 -3 11 -22 32 -19 21 -47 53
-61 69 -14 17 -55 60 -91 98 -35 37 -62 67 -59 67 3 0 -48 54 -114 120 -65 65
-121 118 -123 115 -2 -2 -17 11 -33 29 -30 34 -239 221 -239 213 0 -2 -21 16
-47 40 -26 23 -53 43 -59 43 -6 0 -18 9 -25 19 -27 38 -456 337 -475 331 -4
-1 -10 3 -13 9 -7 11 -197 128 -261 161 -21 11 -40 16 -44 13 -3 -4 -6 -1 -6
5 0 13 -120 77 -120 65 0 -5 -4 -3 -8 2 -14 21 -307 160 -350 167 -9 2 -20 7
-23 11 -21 29 -685 253 -721 243 -10 -2 -16 0 -13 4 8 13 -398 105 -422 96 -7
-3 -15 -1 -18 3 -4 8 -98 27 -145 30 -8 1 -76 10 -151 20 -74 10 -189 24 -255
30 -159 15 -636 22 -805 11z m1591 -826 c0 -8 -19 -13 -24 -6 -3 5 1 9 9 9 8
0 15 -2 15 -3z m-32 -41 c-3 -13 188 -194 196 -186 4 5 6 3 4 -2 -2 -8 179
-186 517 -507 l60 -57 -40 -39 c-22 -22 -179 -171 -350 -332 -170 -161 -327
-311 -348 -332 l-38 -39 -127 122 c-70 68 -186 181 -259 252 -90 88 -136 127
-145 122 -7 -5 -10 -4 -5 0 10 12 -93 116 -107 108 -6 -3 -8 -2 -3 2 4 5 -15
32 -43 60 l-51 52 93 98 c51 53 97 105 102 114 6 9 20 24 33 34 13 10 20 23
17 29 -4 6 -3 8 3 5 13 -8 73 57 73 78 0 9 4 14 9 11 4 -3 37 25 72 62 333
355 342 364 337 345z m79 -48 c0 -8 -4 -12 -9 -9 -5 3 -6 10 -3 15 9 13 12 11
12 -6z m-556 -422 c13 -16 12 -17 -3 -4 -10 7 -18 15 -18 17 0 8 8 3 21 -13z
m-1086 -195 c4 -18 13 -46 20 -63 7 -16 19 -47 25 -68 10 -33 14 -36 28 -25
15 12 16 11 3 -5 -12 -15 -11 -23 4 -57 10 -22 22 -37 26 -34 5 3 6 -1 3 -9
-3 -8 3 -23 13 -32 10 -10 16 -19 14 -19 -9 -2 11 -46 20 -46 6 0 8 -3 5 -8
-6 -10 39 -83 47 -75 4 3 7 -3 7 -14 0 -11 10 -31 23 -44 12 -14 23 -28 24
-32 1 -4 24 -38 51 -75 96 -132 274 -290 421 -375 66 -38 206 -100 227 -100 8
0 14 -5 14 -10 0 -5 7 -7 15 -3 8 3 15 1 15 -3 0 -11 213 -63 238 -59 9 1 23
-1 31 -6 17 -11 391 -20 391 -9 0 4 29 9 65 9 75 2 75 2 178 16 42 6 80 14 83
19 3 5 10 7 15 3 10 -6 104 13 124 24 5 3 22 7 37 9 77 8 363 115 520 194 71
36 78 42 66 57 -12 15 -11 16 4 3 15 -11 24 -9 65 15 27 15 52 33 56 41 5 7
12 11 16 8 5 -2 20 6 35 20 14 13 26 22 26 19 0 -8 92 58 192 139 48 38 85 74
81 80 -3 6 -2 7 4 4 11 -7 80 62 75 76 -1 5 2 6 7 3 5 -3 23 10 40 29 17 20
32 33 32 30 1 -3 2 -9 3 -13 2 -14 119 -172 128 -172 4 0 8 -6 8 -13 0 -7 10
-23 23 -37 13 -14 26 -33 30 -42 3 -10 10 -18 16 -18 5 0 11 -8 13 -18 3 -9
103 -151 223 -315 l218 -299 -59 -60 c-216 -219 -613 -465 -959 -592 -165 -61
-391 -119 -576 -148 -195 -30 -621 -33 -799 -5 -240 38 -414 90 -619 188 -68
32 -128 56 -134 52 -5 -3 -7 -1 -4 5 8 11 -87 74 -97 65 -3 -4 -6 -2 -6 4 0
12 -162 139 -173 135 -5 -1 -6 1 -3 6 3 4 -25 37 -61 73 -36 35 -93 98 -126
139 -33 41 -63 77 -68 78 -5 2 -9 9 -9 16 0 7 -8 21 -18 32 -9 10 -23 32 -30
47 -6 15 -16 26 -21 22 -5 -3 -13 0 -17 6 -5 8 -3 9 6 4 16 -10 17 -12 -51
120 -65 126 -115 255 -159 411 -35 122 -33 111 -55 254 -19 123 -21 138 -30
333 -5 100 -4 147 3 147 6 0 13 -15 17 -32z m2619 -403 c-4 -9 -16 -21 -28
-27 -19 -10 -18 -8 4 15 29 31 31 32 24 12z m-1293 -282 c13 -16 12 -17 -3 -4
-17 13 -22 21 -14 21 2 0 10 -8 17 -17z m194 -123 c10 -11 16 -20 13 -20 -3 0
-13 9 -23 20 -10 11 -16 20 -13 20 3 0 13 -9 23 -20z m526 -127 c13 -16 12
-17 -3 -4 -17 13 -22 21 -14 21 2 0 10 -8 17 -17z m-3142 -52 c52 -6 98 -8
102 -5 4 2 10 0 14 -6 3 -5 19 -10 34 -10 15 0 77 -14 137 -31 60 -17 114 -32
119 -33 6 -2 32 -13 58 -24 27 -12 52 -22 56 -22 4 0 48 -22 99 -49 50 -27 94
-46 97 -43 3 3 5 0 5 -6 0 -7 7 -12 15 -12 8 0 15 -4 15 -8 0 -7 47 -39 62
-41 4 -1 22 -15 40 -31 17 -16 34 -28 36 -25 3 2 62 -53 132 -123 287 -288
420 -597 420 -976 0 -329 -102 -629 -320 -939 -133 -189 -407 -436 -630 -569
-50 -29 -90 -55 -90 -58 0 -4 17 -12 38 -19 69 -24 386 -183 402 -201 15 -17
78 -49 85 -42 5 4 5 2 2 -4 -3 -6 22 -31 56 -55 l62 -44 215 0 c167 1 233 5
295 18 108 24 155 39 155 48 0 5 8 5 17 2 13 -5 15 -3 9 13 -5 14 -4 16 4 8
19 -19 139 29 173 70 10 11 15 15 11 7 -8 -17 -4 -14 81 43 88 59 211 188 286
301 121 181 161 245 163 261 1 9 7 19 13 22 5 4 43 63 83 132 40 69 81 137 92
153 10 15 16 33 12 40 -4 6 -3 9 1 5 7 -7 133 172 127 179 -1 2 8 13 21 26 12
13 38 43 57 68 19 24 57 66 84 94 28 27 49 54 47 60 -1 5 0 7 4 3 4 -3 33 15
66 41 33 26 95 68 139 93 44 25 77 48 73 52 -4 4 1 4 11 0 12 -5 22 -2 28 10
5 9 13 14 18 11 4 -3 27 2 51 11 78 27 212 62 284 73 96 15 119 19 125 21 3 2
8 2 12 1 3 0 86 4 183 9 108 5 221 5 291 -1 142 -11 156 -13 274 -46 52 -14
105 -26 117 -27 11 -1 19 -4 16 -8 -4 -8 1 -10 30 -12 6 -1 14 -3 17 -6 7 -8
179 -89 187 -89 3 0 9 -3 12 -8 3 -4 46 -35 95 -67 279 -187 545 -526 692
-881 278 -675 254 -1439 -67 -2105 -346 -719 -935 -1215 -1614 -1360 -129 -27
-393 -38 -529 -21 -115 15 -251 50 -355 92 -42 17 -82 32 -88 32 -7 0 -13 4
-13 8 0 7 -12 13 -45 21 -5 2 -20 13 -34 26 -13 12 -30 22 -37 22 -7 0 -14 3
-16 8 -6 14 -110 87 -120 84 -5 -1 -7 2 -4 6 8 13 -30 45 -44 37 -5 -3 -7 -11
-4 -17 4 -7 2 -8 -5 -4 -9 6 -9 11 -1 22 18 20 -59 107 -80 91 -12 -9 -13 -9
-3 2 9 11 4 26 -28 73 -89 130 -169 337 -185 477 -3 34 -9 61 -13 61 -10 0 -3
269 10 370 7 52 13 104 14 115 2 11 6 28 10 37 4 10 8 35 8 57 1 21 5 37 10
34 4 -2 8 5 9 16 0 12 1 27 2 34 1 6 3 14 6 17 3 3 16 38 28 78 23 73 33 82
39 39 4 -31 122 -267 134 -267 5 0 9 -5 9 -12 0 -21 108 -154 183 -225 40 -37
98 -85 130 -106 59 -40 173 -95 204 -100 10 -1 23 -5 28 -9 12 -7 144 -36 165
-36 8 0 45 -3 82 -7 37 -4 75 -4 85 0 10 4 44 8 76 10 79 5 136 15 143 26 3 5
9 7 14 4 19 -11 264 71 255 85 -3 5 0 12 6 16 8 4 9 3 5 -4 -13 -22 14 -12
127 44 160 81 357 219 339 239 -4 5 -2 5 4 2 15 -9 137 121 128 135 -4 7 -2 8
4 4 12 -7 112 127 112 151 0 7 4 13 8 13 5 0 25 35 45 78 41 88 69 162 60 162
-3 0 -1 6 5 13 16 19 41 113 38 141 -2 14 1 23 5 20 5 -3 9 5 10 18 0 13 2 31
4 40 17 87 31 323 19 316 -5 -3 -10 34 -10 86 -2 137 -58 396 -92 424 -10 7
-11 11 -4 7 13 -7 17 7 5 19 -4 3 -8 15 -10 25 -10 65 -156 347 -173 336 -6
-3 -7 1 -4 9 3 9 1 16 -5 16 -6 0 -11 6 -11 13 0 23 -121 158 -183 204 -91 67
-122 79 -289 122 -198 50 -313 65 -436 58 -119 -7 -193 -26 -297 -76 -252
-120 -490 -391 -780 -886 -48 -83 -111 -184 -139 -225 -64 -94 -212 -249 -293
-306 -77 -56 -207 -117 -298 -139 -127 -33 -353 -18 -479 31 -12 5 2 -23 41
-82 210 -313 332 -626 389 -999 26 -167 26 -522 0 -685 -119 -761 -572 -1316
-1255 -1540 -221 -72 -426 -107 -696 -116 -543 -20 -1047 97 -1503 350 -56 31
-105 56 -109 56 -3 0 2 -10 13 -22 l19 -23 -22 19 c-12 10 -21 22 -20 27 1 5
-11 17 -27 27 -16 9 -37 23 -45 29 -9 7 -50 37 -91 67 -41 31 -79 59 -85 64
-5 4 -13 9 -17 11 -3 1 -25 20 -48 42 -23 22 -45 37 -50 34 -5 -3 -11 -1 -15
5 -4 6 -11 7 -17 4 -7 -4 -8 -2 -4 5 6 9 12 9 24 -1 10 -7 -44 51 -119 127
-74 77 -164 176 -198 220 -35 44 -67 82 -72 83 -5 2 -9 10 -9 18 0 8 -7 17
-15 20 -8 4 -15 10 -15 15 0 5 -31 56 -68 112 -38 56 -90 143 -117 192 -27 50
-53 93 -59 97 -6 4 -8 8 -4 8 4 0 -16 47 -43 105 -27 57 -49 109 -49 115 0 6
-5 8 -12 4 -6 -4 -8 -3 -5 4 4 5 -9 52 -28 103 -39 102 -110 333 -121 392 -3
21 -18 53 -32 70 -24 29 -24 30 -3 12 l24 -20 -7 22 c-8 26 -16 60 -21 93 -47
318 -59 493 -51 735 3 105 8 204 10 220 19 130 27 207 22 221 -3 8 -2 13 3 10
5 -3 11 16 15 42 9 67 12 83 44 214 21 85 26 120 18 128 -8 8 -7 11 3 8 15 -3
34 48 26 70 -3 7 -1 11 4 7 5 -3 13 9 16 27 4 17 25 79 46 137 22 58 37 111
34 119 -2 7 0 10 5 7 10 -6 13 3 13 37 0 10 4 15 8 12 8 -5 13 10 10 29 0 4 3
7 8 7 5 0 13 10 17 23 3 12 19 48 35 80 16 33 26 64 22 70 -3 5 -2 7 4 4 10
-6 70 109 66 125 -2 4 1 8 5 8 5 0 21 24 37 53 15 28 37 65 48 80 16 24 17 30
5 45 -11 15 -11 15 2 5 13 -10 20 -4 44 33 16 25 31 43 34 40 3 -3 -7 -33 -23
-67 -15 -34 -28 -66 -29 -73 -1 -6 -8 -21 -14 -34 -7 -12 -10 -27 -7 -32 3 -6
1 -10 -5 -10 -6 0 -9 -4 -5 -9 3 -5 1 -12 -5 -16 -21 -13 -132 -412 -144 -521
-3 -25 -8 -50 -12 -55 -3 -6 0 -17 8 -26 9 -12 9 -15 1 -9 -9 5 -14 0 -15 -16
0 -13 -2 -36 -3 -53 -1 -16 -6 -39 -11 -50 -5 -11 -9 -148 -9 -305 0 -308 12
-410 70 -634 138 -531 492 -1010 1010 -1368 100 -69 236 -151 253 -151 6 0 12
-4 12 -8 0 -4 24 -19 53 -32 55 -26 313 -118 325 -115 4 1 19 -4 33 -9 26 -11
182 -46 254 -58 122 -19 193 -24 309 -25 109 0 133 3 149 18 11 9 17 11 12 3
-6 -11 0 -12 31 -7 22 3 46 6 54 7 66 4 306 80 321 102 3 5 8 7 10 5 10 -7 88
36 82 45 -3 6 -1 7 4 4 26 -16 273 185 288 234 4 11 11 17 16 14 5 -4 12 2 16
12 3 10 19 31 35 47 15 17 28 36 28 43 0 7 4 13 9 13 5 0 28 36 50 80 23 44
39 80 36 80 -4 0 1 7 10 16 9 9 14 23 11 31 -3 8 -2 12 2 9 11 -6 63 154 65
199 1 19 5 35 9 35 4 0 7 8 7 18 0 9 5 58 11 107 12 99 5 236 -14 247 -8 6 -8
8 1 8 12 0 11 8 -19 127 -12 49 -25 80 -31 76 -6 -3 -7 -1 -3 6 4 6 -9 48 -30
92 -29 61 -41 78 -53 74 -12 -5 -13 -3 -4 6 9 9 6 21 -14 50 -14 22 -30 39
-35 39 -5 0 -6 4 -3 10 10 15 -165 183 -230 221 -136 79 -227 103 -390 103
-101 0 -150 -5 -219 -22 -97 -24 -279 -99 -271 -112 2 -4 -5 -16 -18 -26 l-22
-19 19 23 c22 26 16 28 -24 7 l-28 -15 -16 43 c-9 23 -43 114 -76 202 -32 88
-64 159 -69 158 -6 -2 -8 4 -5 12 7 18 -15 87 -26 80 -4 -3 -6 4 -3 15 3 12 0
20 -6 20 -7 0 -9 4 -6 10 9 15 -24 72 -38 63 -9 -5 -9 -3 1 9 10 12 7 28 -14
84 -14 38 -30 75 -36 82 -6 6 -8 12 -5 12 5 0 -23 82 -61 180 -5 14 -10 28
-11 33 0 4 -7 20 -16 36 l-14 29 37 6 c148 25 270 51 266 57 -2 4 1 11 7 15 8
4 9 3 5 -4 -11 -19 13 -15 146 23 226 65 422 140 411 158 -4 6 -1 7 6 2 14 -8
111 33 111 47 0 5 4 7 8 4 5 -3 25 6 45 19 20 14 40 25 46 25 5 0 15 8 20 18
6 9 11 13 11 9 0 -11 120 74 120 85 0 5 4 7 9 4 12 -8 44 31 36 43 -3 7 0 8 9
5 19 -7 59 29 127 112 48 61 60 82 37 68 -7 -4 -8 -3 -4 5 4 6 11 9 16 6 10
-6 63 82 56 94 -3 5 1 14 10 21 8 7 13 19 10 27 -3 8 -2 12 3 9 11 -7 24 41
16 54 -4 6 -2 10 4 10 14 0 32 127 27 205 -7 133 -15 169 -51 241 -75 152
-222 231 -474 254 -493 45 -1301 -234 -1668 -574 l-71 -66 -20 32 c-12 18 -31
44 -44 58 -13 13 -22 27 -20 30 6 10 -193 308 -202 303 -5 -4 -6 -1 -2 5 4 6
-1 20 -11 30 -10 10 -19 24 -21 31 -4 20 -48 82 -54 76 -2 -3 -5 1 -5 8 0 7
-60 107 -135 222 -74 116 -139 219 -145 230 -9 18 0 27 93 85 63 40 101 70 99
78 -3 7 0 10 5 7 12 -8 110 44 110 58 0 6 3 8 6 4 3 -3 34 10 68 29 89 51 319
166 406 204 41 18 77 35 80 39 3 3 12 7 21 9 36 6 129 49 122 57 -5 4 -2 5 4
1 13 -7 126 28 151 47 6 5 12 7 12 5 0 -3 51 9 113 28 72 21 111 37 109 45 -2
10 0 10 12 0 12 -10 19 -10 38 0 13 7 25 11 28 10 3 -1 27 1 53 4 39 6 47 10
42 24 -5 13 -4 14 6 4 14 -14 53 -18 45 -5 -2 4 14 6 36 4 22 -3 38 0 35 4 -3
5 34 10 82 12 47 1 87 6 89 10 3 10 281 6 391 -7z m-2055 -1099 c3 -5 -1 -9
-9 -9 -8 0 -12 4 -9 9 3 4 7 8 9 8 2 0 6 -4 9 -8z m2714 -547 c-3 -3 -9 2 -12
12 -6 14 -5 15 5 6 7 -7 10 -15 7 -18z m-503 -735 c3 -5 1 -10 -4 -10 -6 0
-11 5 -11 10 0 6 2 10 4 10 3 0 8 -4 11 -10z m-995 -624 c0 -2 -8 -10 -17 -17
-16 -13 -17 -12 -4 4 13 16 21 21 21 13z m785 -1014 c-3 -3 -11 0 -18 7 -9 10
-8 11 6 5 10 -3 15 -9 12 -12z m2536 -375 c-10 -9 -11 -8 -5 6 3 10 9 15 12
12 3 -3 0 -11 -7 -18z m3099 -1291 c0 -2 -8 -10 -17 -17 -16 -13 -17 -12 -4 4
13 16 21 21 21 13z m-160 -160 c0 -2 -8 -10 -17 -17 -16 -13 -17 -12 -4 4 13
16 21 21 21 13z m-106 -51 c-4 -9 -16 -21 -28 -27 -19 -10 -18 -8 4 15 29 31
31 32 24 12z m-2284 -119 c0 -2 -8 -10 -17 -17 -16 -13 -17 -12 -4 4 13 16 21
21 21 13z m-4940 -640 c0 -2 -8 -10 -17 -17 -16 -13 -17 -12 -4 4 13 16 21 21
21 13z m3785 -145 c3 -5 2 -12 -3 -15 -5 -3 -9 1 -9 9 0 17 3 19 12 6z"/>
</g>
</svg>
